<?xml version="1.0" encoding="utf-8"?>
<!-- Generator: Adobe Illustrator 21.0.0, SVG Export Plug-In . SVG Version: 6.00 Build 0)  -->
<svg version="1.1" id="Слой_1" xmlns="http://www.w3.org/2000/svg" xmlns:xlink="http://www.w3.org/1999/xlink" x="0px" y="0px"
	 viewBox="0 0 311.8 165.4" style="enable-background:new 0 0 311.8 165.4;" xml:space="preserve">
<g>
	<path d="M20.4,27.1v-5.2h-4.8v5.2h-1.4V15.7h1.4v4.9h4.8v-4.9h1.4v11.4H20.4z"/>
	<path d="M23.7,22.6v-1.2h7.6v1.2H23.7z"/>
	<path d="M39.4,27.1v-5.2h-4.8v5.2h-1.4V15.7h1.4v4.9h4.8v-4.9h1.4v11.4H39.4z"/>
	<path d="M43.1,27.1v-1.1h2.9v-6.3h-2.9v-1.1h4.2v7.5h2.8v1.1H43.1z M45.5,15.3c0-0.6,0.5-1.1,1.1-1.1s1.1,0.5,1.1,1.1
		c0,0.6-0.5,1.1-1.1,1.1S45.5,15.9,45.5,15.3z"/>
	<path d="M56,18.3c1.8,0,3,0.9,3.2,2.3h-1.3c-0.2-0.8-0.9-1.2-1.9-1.2c-1.1,0-1.8,0.5-1.8,1.3c0,0.7,0.4,1,1.5,1.3l1.2,0.3
		c1.7,0.4,2.4,1.1,2.4,2.3c0,1.6-1.3,2.6-3.3,2.6c-1.9,0-3.2-0.9-3.4-2.4H54c0.2,0.8,1,1.2,2.1,1.2c1.2,0,1.9-0.5,1.9-1.4
		c0-0.7-0.4-1-1.5-1.3l-1.3-0.3c-1.5-0.4-2.3-1.1-2.3-2.4C52.9,19.3,54.2,18.3,56,18.3z"/>
	<path d="M61.7,22.6v-1.2h7.6v1.2H61.7z"/>
	<path d="M77.8,22.4h-2.6v-1.2h4v2.4c0,2.1-1.6,3.6-3.9,3.6c-2.7,0-4.2-1.8-4.2-4.9v-2c0-3.1,1.5-4.9,4.2-4.9c2.4,0,3.9,1.4,3.9,3.8
		h-1.4c-0.1-1.5-1.1-2.5-2.5-2.5c-1.8,0-2.8,1.2-2.8,3.6v2c0,2.4,1,3.6,2.8,3.6c1.6,0,2.5-0.9,2.5-2.4V22.4z"/>
	<path d="M81.2,27.1v-1.1h2.9v-9.7h-2.9v-1.1h4.2v10.8h2.8v1.1H81.2z"/>
	<path d="M91.1,30.1v-1.2c0.1,0,0.3,0,0.5,0c0.8,0,1.2-0.4,1.6-1.4l0.2-0.5l-3.2-8.6h1.5l2.4,7.2h0.1l2.4-7.2H98l-3.2,8.9
		c-0.8,2.1-1.5,2.7-3.1,2.7C91.5,30.1,91.2,30.1,91.1,30.1z"/>
	<path d="M99.8,22.6v-1.2h7.6v1.2H99.8z"/>
	<path d="M115.8,22.4h-2.6v-1.2h4v2.4c0,2.1-1.6,3.6-3.9,3.6c-2.7,0-4.2-1.8-4.2-4.9v-2c0-3.1,1.5-4.9,4.2-4.9
		c2.4,0,3.9,1.4,3.9,3.8h-1.4c-0.1-1.5-1.1-2.5-2.5-2.5c-1.8,0-2.8,1.2-2.8,3.6v2c0,2.4,1,3.6,2.8,3.6c1.6,0,2.5-0.9,2.5-2.4V22.4z"
		/>
	<path d="M119.3,27.1v-1.1h2.9v-9.7h-2.9v-1.1h4.2v10.8h2.8v1.1H119.3z"/>
	<path d="M135.6,27.1h-1.3v-1.5h-0.1c-0.5,1.1-1.4,1.7-2.7,1.7c-1.9,0-2.9-1.1-2.9-3.2v-5.6h1.3v5.2c0,1.5,0.6,2.3,2,2.3
		c1.4,0,2.4-1,2.4-2.4v-5h1.3V27.1z"/>
	<path d="M137.8,22.6v-1.2h7.6v1.2H137.8z"/>
	<path d="M153.9,22.4h-2.6v-1.2h4v2.4c0,2.1-1.6,3.6-3.9,3.6c-2.7,0-4.2-1.8-4.2-4.9v-2c0-3.1,1.5-4.9,4.2-4.9
		c2.4,0,3.9,1.4,3.9,3.8h-1.4c-0.1-1.5-1.1-2.5-2.5-2.5c-1.8,0-2.8,1.2-2.8,3.6v2c0,2.4,1,3.6,2.8,3.6c1.6,0,2.5-0.9,2.5-2.4V22.4z"
		/>
	<path d="M157.3,27.1v-1.1h2.9v-9.7h-2.9v-1.1h4.2v10.8h2.8v1.1H157.3z"/>
	<path d="M167.2,30.1v-1.2c0.1,0,0.3,0,0.5,0c0.8,0,1.2-0.4,1.6-1.4l0.2-0.5l-3.2-8.6h1.5l2.4,7.2h0.1l2.4-7.2h1.4l-3.2,8.9
		c-0.8,2.1-1.5,2.7-3.1,2.7C167.6,30.1,167.3,30.1,167.2,30.1z"/>
	<path d="M175.9,22.6v-1.2h7.6v1.2H175.9z"/>
	<path d="M188.5,27.1V16.9h-3.4v-1.3h8.3v1.3h-3.4v10.1H188.5z"/>
	<path d="M195.2,15.1h1.3V20h0.1c0.5-1.1,1.4-1.7,2.7-1.7c1.9,0,2.9,1.1,2.9,3.2v5.6h-1.3v-5.2c0-1.5-0.6-2.3-2-2.3
		c-1.4,0-2.4,1-2.4,2.4v5h-1.3V15.1z"/>
	<path d="M208,20.7c0.3-1.6,1.4-2.4,3-2.4c0.5,0,1,0.1,1.2,0.2V20c-0.4-0.1-0.9-0.2-1.4-0.2c-1.9,0-3,1.3-3,3.5V26h2.7v1.1h-2.7
		h-1.3h-1.7V26h1.7v-6.4h-1.9v-1.1h3.2v2.2H208z"/>
	<path d="M213.9,22.6v-1.2h7.6v1.2H213.9z"/>
	<path d="M227.6,15.7c2.2,0,3.7,1.4,3.7,3.7c0,2.2-1.5,3.6-3.7,3.6h-2.4v4.1h-1.4V15.7H227.6z M225.2,21.7h2c1.7,0,2.6-0.9,2.6-2.4
		c0-1.6-0.9-2.4-2.6-2.4h-2V21.7z"/>
	<path d="M233.2,15.1h1.3V20h0.1c0.5-1.1,1.4-1.7,2.7-1.7c1.9,0,2.9,1.1,2.9,3.2v5.6h-1.3v-5.2c0-1.5-0.6-2.3-2-2.3
		c-1.4,0-2.4,1-2.4,2.4v5h-1.3V15.1z"/>
	<path d="M249.9,24.8c-0.3,1.4-1.6,2.4-3.4,2.4c-2.4,0-3.7-1.4-3.7-3.9v-1.3c0-2.3,1.4-3.7,3.6-3.7c2.2,0,3.5,1.5,3.5,4v0.8h-5.8
		v0.3c0,1.6,0.9,2.6,2.4,2.6c1.1,0,1.9-0.5,2.1-1.2H249.9z M244.1,22.1h4.5c0-1.6-0.8-2.6-2.2-2.6C244.9,19.5,244.1,20.5,244.1,22.1
		z"/>
	<path d="M252,22.6v-1.2h7.6v1.2H252z"/>
	<path d="M264.6,27.1V16.9h-3.4v-1.3h8.3v1.3H266v10.1H264.6z"/>
	<path d="M271.3,15.1h1.3V20h0.1c0.5-1.1,1.4-1.7,2.7-1.7c1.9,0,2.9,1.1,2.9,3.2v5.6H277v-5.2c0-1.5-0.6-2.3-2-2.3
		c-1.4,0-2.4,1-2.4,2.4v5h-1.3V15.1z"/>
	<path d="M284.1,20.7c0.3-1.6,1.4-2.4,3-2.4c0.5,0,1,0.1,1.2,0.2V20c-0.4-0.1-0.9-0.2-1.4-0.2c-1.9,0-3,1.3-3,3.5V26h2.7v1.1H284
		h-1.3h-1.7V26h1.7v-6.4h-1.9v-1.1h3.2v2.2H284.1z"/>
	<path d="M290,22.6v-1.2h7.6v1.2H290z"/>
	<path d="M23.3,46.9v-1.2h8.4v1.2H23.3z"/>
	<path d="M34.4,48.3c0.1,1.2,1.1,2,2.7,2c1.5,0,2.5-0.8,2.5-2c0-1-0.7-1.6-2.2-2l-1-0.2c-2.1-0.5-3.1-1.5-3.1-3.2
		c0-1.9,1.5-3.2,3.7-3.2c2.1,0,3.6,1.2,3.7,3.1h-1.4c-0.1-1.2-1-1.9-2.4-1.9c-1.5,0-2.3,0.7-2.3,1.9c0,1,0.6,1.6,2.1,1.9l1,0.3
		c2.2,0.5,3.1,1.5,3.1,3.2c0,2-1.5,3.3-3.9,3.3c-2.4,0-3.9-1.2-4-3.3H34.4z"/>
	<path d="M50.1,49.1c-0.3,1.4-1.6,2.4-3.4,2.4c-2.4,0-3.7-1.4-3.7-3.9v-1.3c0-2.3,1.4-3.7,3.6-3.7c2.2,0,3.5,1.5,3.5,4v0.8h-5.8v0.3
		c0,1.6,0.9,2.6,2.4,2.6c1.1,0,1.9-0.5,2.1-1.2H50.1z M44.3,46.4h4.5c0-1.6-0.8-2.6-2.2-2.6C45.2,43.7,44.3,44.7,44.3,46.4z"/>
	<path d="M55.8,44.9c0.3-1.6,1.4-2.4,3-2.4c0.5,0,1,0.1,1.2,0.2v1.5c-0.4-0.1-0.9-0.2-1.4-0.2c-1.9,0-3,1.3-3,3.5v2.8h2.7v1.1h-2.7
		h-1.3h-1.7v-1.1h1.7v-6.4h-1.9v-1.1h3.2v2.2H55.8z"/>
	<path d="M61.7,46.9v-1.2h7.6v1.2H61.7z"/>
	<path d="M77,48h-4l-1,3.3h-1.4l3.7-11.4h1.5l3.7,11.4H78L77,48z M76.6,46.8L75,41.6h0l-1.6,5.3H76.6z"/>
	<path d="M84.6,42.6c1.8,0,3,0.9,3.2,2.3h-1.3c-0.2-0.8-0.9-1.2-1.9-1.2c-1.1,0-1.8,0.5-1.8,1.3c0,0.7,0.4,1,1.5,1.3l1.2,0.3
		c1.7,0.4,2.4,1.1,2.4,2.3c0,1.6-1.3,2.6-3.3,2.6c-1.9,0-3.2-0.9-3.4-2.4h1.4c0.2,0.8,1,1.2,2.1,1.2c1.2,0,1.9-0.5,1.9-1.4
		c0-0.7-0.4-1-1.5-1.3l-1.3-0.3c-1.5-0.4-2.3-1.1-2.3-2.4C81.4,43.6,82.7,42.6,84.6,42.6z"/>
	<path d="M97.9,46.2v1.6c0,2.2-1.3,3.6-3.3,3.6c-1.2,0-2.1-0.5-2.5-1.5h-0.2v4.2h-1.4V42.7h1.3v1.3H92c0.5-0.9,1.3-1.5,2.6-1.5
		C96.6,42.6,97.9,44,97.9,46.2z M91.9,46.4v1.2c0,1.6,0.9,2.6,2.3,2.6c1.4,0,2.3-1,2.3-2.6v-1.2c0-1.6-0.9-2.6-2.3-2.6
		C92.8,43.8,91.9,44.8,91.9,46.4z"/>
	<path d="M99.8,46.9v-1.2h7.6v1.2H99.8z"/>
	<path d="M117,51.3h-6.8V39.9h1.4V50h5.4V51.3z"/>
	<path d="M126.2,49.1c-0.3,1.4-1.6,2.4-3.4,2.4c-2.4,0-3.7-1.4-3.7-3.9v-1.3c0-2.3,1.4-3.7,3.6-3.7c2.2,0,3.5,1.5,3.5,4v0.8h-5.8
		v0.3c0,1.6,0.9,2.6,2.4,2.6c1.1,0,1.9-0.5,2.1-1.2H126.2z M120.4,46.4h4.5c0-1.6-0.8-2.6-2.2-2.6C121.3,43.7,120.4,44.7,120.4,46.4
		z"/>
	<path d="M135.6,51.3h-1.3v-1.5h-0.1c-0.5,1.1-1.4,1.7-2.7,1.7c-1.9,0-2.9-1.1-2.9-3.2v-5.6h1.3V48c0,1.5,0.6,2.3,2,2.3
		c1.4,0,2.4-1,2.4-2.4v-5h1.3V51.3z"/>
	<path d="M137.8,46.9v-1.2h7.6v1.2H137.8z"/>
	<path d="M148.6,48.3c0.1,1.2,1.1,2,2.7,2c1.5,0,2.5-0.8,2.5-2c0-1-0.7-1.6-2.2-2l-1-0.2c-2.1-0.5-3.1-1.5-3.1-3.2
		c0-1.9,1.5-3.2,3.7-3.2c2.1,0,3.6,1.2,3.7,3.1h-1.4c-0.1-1.2-1-1.9-2.4-1.9c-1.5,0-2.3,0.7-2.3,1.9c0,1,0.6,1.6,2.1,1.9l1,0.3
		c2.2,0.5,3.1,1.5,3.1,3.2c0,2-1.5,3.3-3.9,3.3c-2.4,0-3.9-1.2-4-3.3H148.6z"/>
	<path d="M164.3,49.1c-0.3,1.4-1.6,2.4-3.4,2.4c-2.4,0-3.7-1.4-3.7-3.9v-1.3c0-2.3,1.4-3.7,3.6-3.7c2.2,0,3.5,1.5,3.5,4v0.8h-5.8
		v0.3c0,1.6,0.9,2.6,2.4,2.6c1.1,0,1.9-0.5,2.1-1.2H164.3z M158.5,46.4h4.5c0-1.6-0.8-2.6-2.2-2.6C159.3,43.7,158.5,44.7,158.5,46.4
		z"/>
	<path d="M170,44.9c0.3-1.6,1.4-2.4,3-2.4c0.5,0,1,0.1,1.2,0.2v1.5c-0.4-0.1-0.9-0.2-1.4-0.2c-1.9,0-3,1.3-3,3.5v2.8h2.7v1.1h-2.7
		h-1.3h-1.7v-1.1h1.7v-6.4h-1.9v-1.1h3.2v2.2H170z"/>
	<path d="M175.9,46.9v-1.2h7.6v1.2H175.9z"/>
	<path d="M193.1,51.3h-6.8V39.9h1.4V50h5.4V51.3z"/>
	<path d="M195.7,54.3v-1.2c0.1,0,0.3,0,0.5,0c0.8,0,1.2-0.4,1.6-1.4l0.2-0.5l-3.2-8.6h1.5l2.4,7.2h0.1l2.4-7.2h1.4l-3.2,8.9
		c-0.8,2.1-1.5,2.7-3.1,2.7C196.1,54.4,195.9,54.4,195.7,54.3z"/>
	<path d="M208.3,42.6c1.8,0,3,0.9,3.2,2.3h-1.3c-0.2-0.8-0.9-1.2-1.9-1.2c-1.1,0-1.8,0.5-1.8,1.3c0,0.7,0.4,1,1.5,1.3l1.2,0.3
		c1.7,0.4,2.4,1.1,2.4,2.3c0,1.6-1.3,2.6-3.3,2.6c-1.9,0-3.2-0.9-3.4-2.4h1.4c0.2,0.8,1,1.2,2.1,1.2c1.2,0,1.9-0.5,1.9-1.4
		c0-0.7-0.4-1-1.5-1.3l-1.3-0.3c-1.5-0.4-2.3-1.1-2.3-2.4C205.1,43.6,206.4,42.6,208.3,42.6z"/>
	<path d="M213.9,46.9v-1.2h7.6v1.2H213.9z"/>
	<path d="M230,46.7h-2.6v-1.2h4v2.4c0,2.1-1.6,3.6-3.9,3.6c-2.7,0-4.2-1.8-4.2-4.9v-2c0-3.1,1.5-4.9,4.2-4.9c2.4,0,3.9,1.4,3.9,3.8
		H230c-0.1-1.5-1.1-2.5-2.5-2.5c-1.8,0-2.8,1.2-2.8,3.6v2c0,2.4,1,3.6,2.8,3.6c1.6,0,2.5-0.9,2.5-2.4V46.7z"/>
	<path d="M233.4,51.3v-1.1h2.9v-9.7h-2.9v-1.1h4.2v10.8h2.8v1.1H233.4z"/>
	<path d="M242.8,42.7h1.3v1.5h0.1c0.5-1.1,1.4-1.7,2.7-1.7c1.9,0,2.9,1.1,2.9,3.2v5.6h-1.3v-5.2c0-1.5-0.6-2.3-2-2.3
		c-1.4,0-2.4,1-2.4,2.4v5h-1.3V42.7z"/>
	<path d="M252,46.9v-1.2h7.6v1.2H252z"/>
	<path d="M262.3,51.3h-1.2V39.9h1.5l2.6,7.1h0.1l2.6-7.1h1.5v11.4h-1.2v-4.4l0.1-4.6h-0.1l-2.4,6.3h-1.1l-2.4-6.3h-0.1l0.1,4.6V51.3
		z"/>
	<path d="M278.4,49.1c-0.3,1.4-1.6,2.4-3.4,2.4c-2.4,0-3.7-1.4-3.7-3.9v-1.3c0-2.3,1.4-3.7,3.6-3.7c2.2,0,3.5,1.5,3.5,4v0.8h-5.8
		v0.3c0,1.6,0.9,2.6,2.4,2.6c1.1,0,1.9-0.5,2.1-1.2H278.4z M272.6,46.4h4.5c0-1.6-0.8-2.6-2.2-2.6C273.5,43.7,272.6,44.7,272.6,46.4
		z"/>
	<path d="M284.2,40.4v2.3h3.5v1.1h-3.5v4.8c0,0.9,0.7,1.4,1.9,1.4c0.5,0,1.3,0,1.6,0v1.1c-0.2,0-1.3,0.1-1.7,0.1
		c-2.1,0-3.1-0.8-3.1-2.6v-4.8h-2.3v-1.1h2.3v-2.3H284.2z"/>
	<path d="M290,46.9v-1.2h7.6v1.2H290z"/>
	<path d="M23.7,71.1v-1.2h7.6v1.2H23.7z"/>
	<path d="M39.7,71h-2.6v-1.2h4v2.4c0,2.1-1.6,3.6-3.9,3.6c-2.7,0-4.2-1.8-4.2-4.9v-2c0-3.1,1.5-4.9,4.2-4.9c2.4,0,3.9,1.4,3.9,3.8
		h-1.4c-0.1-1.5-1.1-2.5-2.5-2.5c-1.8,0-2.8,1.2-2.8,3.6v2c0,2.4,1,3.6,2.8,3.6c1.6,0,2.5-0.9,2.5-2.4V71z"/>
	<path d="M43.1,75.6v-1.1h2.9v-9.7h-2.9v-1.1h4.2v10.8h2.8v1.1H43.1z"/>
	<path d="M59.5,75.6h-1.3v-1.5h-0.1c-0.5,1.1-1.4,1.7-2.7,1.7c-1.9,0-2.9-1.1-2.9-3.2V67h1.3v5.2c0,1.5,0.6,2.3,2,2.3
		c1.4,0,2.4-1,2.4-2.4v-5h1.3V75.6z"/>
	<path d="M61.7,71.1v-1.2h7.6v1.2H61.7z"/>
	<path d="M77.8,71h-2.6v-1.2h4v2.4c0,2.1-1.6,3.6-3.9,3.6c-2.7,0-4.2-1.8-4.2-4.9v-2c0-3.1,1.5-4.9,4.2-4.9c2.4,0,3.9,1.4,3.9,3.8
		h-1.4c-0.1-1.5-1.1-2.5-2.5-2.5c-1.8,0-2.8,1.2-2.8,3.6v2c0,2.4,1,3.6,2.8,3.6c1.6,0,2.5-0.9,2.5-2.4V71z"/>
	<path d="M81.2,75.6v-1.1h2.9v-9.7h-2.9v-1.1h4.2v10.8h2.8v1.1H81.2z"/>
	<path d="M97.6,75.6h-1.3v-1.5h-0.1c-0.5,1.1-1.4,1.7-2.7,1.7c-1.9,0-2.9-1.1-2.9-3.2V67h1.3v5.2c0,1.5,0.6,2.3,2,2.3
		c1.4,0,2.4-1,2.4-2.4v-5h1.3V75.6z"/>
	<path d="M99.8,71.1v-1.2h7.6v1.2H99.8z"/>
	<path d="M115.8,71h-2.6v-1.2h4v2.4c0,2.1-1.6,3.6-3.9,3.6c-2.7,0-4.2-1.8-4.2-4.9v-2c0-3.1,1.5-4.9,4.2-4.9c2.4,0,3.9,1.4,3.9,3.8
		h-1.4c-0.1-1.5-1.1-2.5-2.5-2.5c-1.8,0-2.8,1.2-2.8,3.6v2c0,2.4,1,3.6,2.8,3.6c1.6,0,2.5-0.9,2.5-2.4V71z"/>
	<path d="M119.3,75.6v-1.1h2.9v-9.7h-2.9v-1.1h4.2v10.8h2.8v1.1H119.3z"/>
	<path d="M135.6,75.6h-1.3v-1.5h-0.1c-0.5,1.1-1.4,1.7-2.7,1.7c-1.9,0-2.9-1.1-2.9-3.2V67h1.3v5.2c0,1.5,0.6,2.3,2,2.3
		c1.4,0,2.4-1,2.4-2.4v-5h1.3V75.6z"/>
	<path d="M137.8,71.1v-1.2h7.6v1.2H137.8z"/>
	<path d="M153.1,72.3h-4l-1,3.3h-1.4l3.7-11.4h1.5l3.7,11.4h-1.5L153.1,72.3z M152.7,71.1l-1.6-5.3h0l-1.6,5.3H152.7z"/>
	<path d="M157.3,75.6v-1.1h2.9v-9.7h-2.9v-1.1h4.2v10.8h2.8v1.1H157.3z"/>
	<path d="M166.6,73.1c0-1.5,1.1-2.4,3-2.5l2.4-0.1v-0.8c0-1.1-0.7-1.7-1.8-1.7c-1,0-1.7,0.4-1.9,1.2h-1.3c0.2-1.4,1.5-2.3,3.2-2.3
		c2,0,3.2,1,3.2,2.8v5.9H172v-1.3h-0.1c-0.4,0.9-1.3,1.4-2.6,1.4C167.7,75.7,166.6,74.7,166.6,73.1z M172,72.5v-1l-2.2,0.1
		c-1.2,0.1-1.8,0.6-1.8,1.5c0,0.9,0.7,1.5,1.8,1.5C171,74.5,172,73.7,172,72.5z"/>
	<path d="M175.9,71.1v-1.2h7.6v1.2H175.9z"/>
	<path d="M192.2,64.2h1.4l-3.7,11.4h-1.5l-3.7-11.4h1.5l3,9.7h0L192.2,64.2z"/>
	<path d="M195.1,73.1c0-1.5,1.1-2.4,3-2.5l2.4-0.1v-0.8c0-1.1-0.7-1.7-1.8-1.7c-1,0-1.7,0.4-1.9,1.2h-1.3c0.2-1.4,1.5-2.3,3.2-2.3
		c2,0,3.2,1,3.2,2.8v5.9h-1.3v-1.3h-0.1c-0.4,0.9-1.3,1.4-2.6,1.4C196.2,75.7,195.1,74.7,195.1,73.1z M200.5,72.5v-1l-2.2,0.1
		c-1.2,0.1-1.8,0.6-1.8,1.5c0,0.9,0.7,1.5,1.8,1.5C199.5,74.5,200.5,73.7,200.5,72.5z"/>
	<path d="M204.9,75.6v-1.1h2.9v-9.7h-2.9v-1.1h4.2v10.8h2.8v1.1H204.9z"/>
	<path d="M213.9,71.1v-1.2h7.6v1.2H213.9z"/>
	<path d="M229.2,72.3h-4l-1,3.3h-1.4l3.7-11.4h1.5l3.7,11.4h-1.5L229.2,72.3z M228.8,71.1l-1.6-5.3h0l-1.6,5.3H228.8z"/>
	<path d="M236.6,69.2c0.3-1.6,1.4-2.4,3-2.4c0.5,0,1,0.1,1.2,0.2v1.5c-0.4-0.1-0.9-0.2-1.4-0.2c-1.9,0-3,1.3-3,3.5v2.8h2.7v1.1h-2.7
		h-1.3h-1.7v-1.1h1.7v-6.4h-1.9V67h3.2v2.2H236.6z"/>
	<path d="M242.5,76.5h1.3c0.2,0.7,1,1.2,2.2,1.2c1.5,0,2.3-0.8,2.3-2.1v-1.3h-0.1c-0.4,0.9-1.3,1.4-2.6,1.4c-2,0-3.3-1.4-3.3-3.6
		v-1.5c0-2.2,1.3-3.6,3.3-3.6c1.2,0,2.2,0.5,2.6,1.5h0.2V67h1.3v8.6c0,2-1.4,3.2-3.7,3.2C244,78.8,242.7,77.9,242.5,76.5z
		 M246.1,74.4c1.4,0,2.3-1,2.3-2.6v-1.2c0-1.6-0.9-2.6-2.3-2.6c-1.4,0-2.3,1-2.3,2.6v1.2C243.7,73.4,244.6,74.4,246.1,74.4z"/>
	<path d="M252,71.1v-1.2h7.6v1.2H252z"/>
	<path d="M269.2,75.6h-6.8V64.2h1.4v10.1h5.4V75.6z"/>
	<path d="M278.4,73.4c-0.3,1.4-1.6,2.4-3.4,2.4c-2.4,0-3.7-1.4-3.7-3.9v-1.3c0-2.3,1.4-3.7,3.6-3.7c2.2,0,3.5,1.5,3.5,4v0.8h-5.8V72
		c0,1.6,0.9,2.6,2.4,2.6c1.1,0,1.9-0.5,2.1-1.2H278.4z M272.6,70.6h4.5c0-1.6-0.8-2.6-2.2-2.6C273.5,68,272.6,69,272.6,70.6z"/>
	<path d="M287.8,75.6h-1.3v-1.5h-0.1c-0.5,1.1-1.4,1.7-2.7,1.7c-1.9,0-2.9-1.1-2.9-3.2V67h1.3v5.2c0,1.5,0.6,2.3,2,2.3
		c1.4,0,2.4-1,2.4-2.4v-5h1.3V75.6z"/>
	<path d="M290,71.1v-1.2h7.6v1.2H290z"/>
	<path d="M23.7,95.4v-1.2h7.6v1.2H23.7z"/>
	<path d="M37.3,88.4c2.2,0,3.7,1.4,3.7,3.7c0,2.2-1.5,3.6-3.7,3.6H35v4.1h-1.4V88.4H37.3z M35,94.5h2c1.7,0,2.6-0.9,2.6-2.4
		c0-1.6-0.9-2.4-2.6-2.4h-2V94.5z"/>
	<path d="M43,87.9h1.3v4.9h0.1c0.5-1.1,1.4-1.7,2.7-1.7c1.9,0,2.9,1.1,2.9,3.2v5.6h-1.3v-5.2c0-1.5-0.6-2.3-2-2.3
		c-1.4,0-2.4,1-2.4,2.4v5H43V87.9z"/>
	<path d="M59.6,97.6C59.4,99,58,100,56.2,100c-2.4,0-3.7-1.4-3.7-3.9v-1.3c0-2.3,1.4-3.7,3.6-3.7c2.2,0,3.5,1.5,3.5,4v0.8h-5.8v0.3
		c0,1.6,0.9,2.6,2.4,2.6c1.1,0,1.9-0.5,2.1-1.2H59.6z M53.8,94.9h4.5c0-1.6-0.8-2.6-2.2-2.6C54.7,92.3,53.8,93.2,53.8,94.9z"/>
	<path d="M61.7,95.4v-1.2h7.6v1.2H61.7z"/>
	<path d="M72,99.8v-1.2h2.3v-8.9H72v-1.2h6v1.2h-2.3v8.9H78v1.2H72z"/>
	<path d="M81.2,99.8v-1.1h2.9V89h-2.9v-1.1h4.2v10.8h2.8v1.1H81.2z"/>
	<path d="M97.7,97.6c-0.3,1.4-1.6,2.4-3.4,2.4c-2.4,0-3.7-1.4-3.7-3.9v-1.3c0-2.3,1.4-3.7,3.6-3.7c2.2,0,3.5,1.5,3.5,4v0.8h-5.8v0.3
		c0,1.6,0.9,2.6,2.4,2.6c1.1,0,1.9-0.5,2.1-1.2H97.7z M91.9,94.9h4.5c0-1.6-0.8-2.6-2.2-2.6C92.7,92.3,91.9,93.2,91.9,94.9z"/>
	<path d="M99.8,95.4v-1.2h7.6v1.2H99.8z"/>
	<path d="M115.8,95.2h-2.6V94h4v2.4c0,2.1-1.6,3.6-3.9,3.6c-2.7,0-4.2-1.8-4.2-4.9v-2c0-3.1,1.5-4.9,4.2-4.9c2.4,0,3.9,1.4,3.9,3.8
		h-1.4c-0.1-1.5-1.1-2.5-2.5-2.5c-1.8,0-2.8,1.2-2.8,3.6v2c0,2.4,1,3.6,2.8,3.6c1.6,0,2.5-0.9,2.5-2.4V95.2z"/>
	<path d="M119.3,99.8v-1.1h2.9V89h-2.9v-1.1h4.2v10.8h2.8v1.1H119.3z"/>
	<path d="M135.6,99.8h-1.3v-1.5h-0.1c-0.5,1.1-1.4,1.7-2.7,1.7c-1.9,0-2.9-1.1-2.9-3.2v-5.6h1.3v5.2c0,1.5,0.6,2.3,2,2.3
		c1.4,0,2.4-1,2.4-2.4v-5h1.3V99.8z"/>
	<path d="M137.8,95.4v-1.2h7.6v1.2H137.8z"/>
	<path d="M150.4,99.8V89.7H147v-1.3h8.3v1.3h-3.4v10.1H150.4z"/>
	<path d="M160.5,93.5c0.3-1.6,1.4-2.4,3-2.4c0.5,0,1,0.1,1.2,0.2v1.5c-0.4-0.1-0.9-0.2-1.4-0.2c-1.9,0-3,1.3-3,3.5v2.8h2.7v1.1h-2.7
		H159h-1.7v-1.1h1.7v-6.4h-1.9v-1.1h3.2v2.2H160.5z"/>
	<path d="M174,94.8v1.6c0,2.2-1.3,3.6-3.3,3.6c-1.2,0-2.1-0.5-2.5-1.5H168v4.2h-1.4V91.3h1.3v1.3h0.1c0.5-0.9,1.3-1.5,2.6-1.5
		C172.7,91.1,174,92.6,174,94.8z M168,94.9v1.2c0,1.6,0.9,2.6,2.3,2.6c1.4,0,2.3-1,2.3-2.6v-1.2c0-1.6-0.9-2.6-2.3-2.6
		C168.9,92.4,168,93.4,168,94.9z"/>
	<path d="M175.9,95.4v-1.2h7.6v1.2H175.9z"/>
	<path d="M193.1,99.8h-6.8V88.4h1.4v10.1h5.4V99.8z"/>
	<path d="M202.3,97.6c-0.3,1.4-1.6,2.4-3.4,2.4c-2.4,0-3.7-1.4-3.7-3.9v-1.3c0-2.3,1.4-3.7,3.6-3.7c2.2,0,3.5,1.5,3.5,4v0.8h-5.8
		v0.3c0,1.6,0.9,2.6,2.4,2.6c1.1,0,1.9-0.5,2.1-1.2H202.3z M196.5,94.9h4.5c0-1.6-0.8-2.6-2.2-2.6C197.4,92.3,196.5,93.2,196.5,94.9
		z"/>
	<path d="M211.7,99.8h-1.3v-1.5h-0.1c-0.5,1.1-1.4,1.7-2.7,1.7c-1.9,0-2.9-1.1-2.9-3.2v-5.6h1.3v5.2c0,1.5,0.6,2.3,2,2.3
		c1.4,0,2.4-1,2.4-2.4v-5h1.3V99.8z"/>
	<path d="M213.9,95.4v-1.2h7.6v1.2H213.9z"/>
	<path d="M231.1,99.8h-6.8V88.4h1.4v10.1h5.4V99.8z"/>
	<path d="M233.8,102.9v-1.2c0.1,0,0.3,0,0.5,0c0.8,0,1.2-0.4,1.6-1.4l0.2-0.5l-3.2-8.6h1.5l2.4,7.2h0.1l2.4-7.2h1.4l-3.2,8.9
		c-0.8,2.1-1.5,2.7-3.1,2.7C234.2,102.9,233.9,102.9,233.8,102.9z"/>
	<path d="M246.3,91.1c1.8,0,3,0.9,3.2,2.3h-1.3c-0.2-0.8-0.9-1.2-1.9-1.2c-1.1,0-1.8,0.5-1.8,1.3c0,0.7,0.4,1,1.5,1.3l1.2,0.3
		c1.7,0.4,2.4,1.1,2.4,2.3c0,1.6-1.3,2.6-3.3,2.6c-1.9,0-3.2-0.9-3.4-2.4h1.4c0.2,0.8,1,1.2,2.1,1.2c1.2,0,1.9-0.5,1.9-1.3
		c0-0.7-0.4-1-1.5-1.3l-1.3-0.3c-1.5-0.4-2.3-1.1-2.3-2.4C243.2,92.1,244.4,91.1,246.3,91.1z"/>
	<path d="M252,95.4v-1.2h7.6v1.2H252z"/>
	<path d="M267.3,96.6h-4l-1,3.3h-1.4l3.7-11.4h1.5l3.7,11.4h-1.5L267.3,96.6z M266.9,95.4l-1.6-5.3h0l-1.6,5.3H266.9z"/>
	<path d="M274.8,91.1c1.8,0,3,0.9,3.2,2.3h-1.3c-0.2-0.8-0.9-1.2-1.9-1.2c-1.1,0-1.8,0.5-1.8,1.3c0,0.7,0.4,1,1.5,1.3l1.2,0.3
		c1.7,0.4,2.4,1.1,2.4,2.3c0,1.6-1.3,2.6-3.3,2.6c-1.9,0-3.2-0.9-3.4-2.4h1.4c0.2,0.8,1,1.2,2.1,1.2c1.2,0,1.9-0.5,1.9-1.3
		c0-0.7-0.4-1-1.5-1.3l-1.3-0.3c-1.5-0.4-2.3-1.1-2.3-2.4C271.7,92.1,273,91.1,274.8,91.1z"/>
	<path d="M280.8,91.3h1.3v1.5h0.1c0.5-1.1,1.4-1.7,2.7-1.7c1.9,0,2.9,1.1,2.9,3.2v5.6h-1.3v-5.2c0-1.5-0.6-2.3-2-2.3
		c-1.4,0-2.4,1-2.4,2.4v5h-1.3V91.3z"/>
	<path d="M290,95.4v-1.2h7.6v1.2H290z"/>
	<path d="M23.7,119.7v-1.2h7.6v1.2H23.7z"/>
	<path d="M39.7,119.5h-2.6v-1.2h4v2.4c0,2.1-1.6,3.6-3.9,3.6c-2.7,0-4.2-1.8-4.2-4.9v-2c0-3.1,1.5-4.9,4.2-4.9
		c2.4,0,3.9,1.4,3.9,3.8h-1.4c-0.1-1.5-1.1-2.5-2.5-2.5c-1.8,0-2.8,1.2-2.8,3.6v2c0,2.4,1,3.6,2.8,3.6c1.6,0,2.5-0.9,2.5-2.4V119.5z
		"/>
	<path d="M43.1,124.1V123h2.9v-9.7h-2.9v-1.1h4.2V123h2.8v1.1H43.1z"/>
	<path d="M53,127.1v-1.2c0.1,0,0.3,0,0.5,0c0.8,0,1.2-0.4,1.6-1.4l0.2-0.5l-3.2-8.6h1.5l2.4,7.2h0.1l2.4-7.2h1.4l-3.2,8.9
		c-0.8,2.1-1.5,2.7-3.1,2.7C53.4,127.1,53.2,127.1,53,127.1z"/>
	<path d="M61.7,119.7v-1.2h7.6v1.2H61.7z"/>
	<path d="M77.8,119.5h-2.6v-1.2h4v2.4c0,2.1-1.6,3.6-3.9,3.6c-2.7,0-4.2-1.8-4.2-4.9v-2c0-3.1,1.5-4.9,4.2-4.9
		c2.4,0,3.9,1.4,3.9,3.8h-1.4c-0.1-1.5-1.1-2.5-2.5-2.5c-1.8,0-2.8,1.2-2.8,3.6v2c0,2.4,1,3.6,2.8,3.6c1.6,0,2.5-0.9,2.5-2.4V119.5z
		"/>
	<path d="M81.2,124.1V123h2.9v-9.7h-2.9v-1.1h4.2V123h2.8v1.1H81.2z"/>
	<path d="M91.1,127.1v-1.2c0.1,0,0.3,0,0.5,0c0.8,0,1.2-0.4,1.6-1.4l0.2-0.5l-3.2-8.6h1.5l2.4,7.2h0.1l2.4-7.2H98l-3.2,8.9
		c-0.8,2.1-1.5,2.7-3.1,2.7C91.5,127.1,91.2,127.1,91.1,127.1z"/>
	<path d="M99.8,119.7v-1.2h7.6v1.2H99.8z"/>
	<path d="M113.4,112.7c2.2,0,3.7,1.4,3.7,3.7c0,2.2-1.5,3.6-3.7,3.6h-2.4v4.1h-1.4v-11.4H113.4z M111.1,118.8h2
		c1.7,0,2.6-0.9,2.6-2.4c0-1.6-0.9-2.4-2.6-2.4h-2V118.8z"/>
	<path d="M122.4,117.7c0.3-1.6,1.4-2.4,3-2.4c0.5,0,1,0.1,1.2,0.2v1.5c-0.4-0.1-0.9-0.2-1.4-0.2c-1.9,0-3,1.3-3,3.5v2.8h2.7v1.1
		h-2.7H121h-1.7V123h1.7v-6.4h-1.9v-1.1h3.2v2.2H122.4z"/>
	<path d="M128.4,120.5v-1.3c0-2.3,1.4-3.8,3.7-3.8c2.3,0,3.7,1.5,3.7,3.8v1.3c0,2.3-1.4,3.8-3.7,3.8
		C129.9,124.3,128.4,122.8,128.4,120.5z M129.7,119.3v1.1c0,1.7,0.9,2.7,2.4,2.7s2.4-1,2.4-2.7v-1.1c0-1.7-0.9-2.7-2.4-2.7
		S129.7,117.6,129.7,119.3z"/>
	<path d="M137.8,119.7v-1.2h7.6v1.2H137.8z"/>
	<path d="M148.6,121.1c0.1,1.2,1.1,2,2.7,2c1.5,0,2.5-0.8,2.5-2c0-1-0.7-1.6-2.2-2l-1-0.2c-2.1-0.5-3.1-1.5-3.1-3.2
		c0-1.9,1.5-3.2,3.7-3.2c2.1,0,3.6,1.2,3.7,3.1h-1.4c-0.1-1.2-1-1.9-2.4-1.9c-1.5,0-2.3,0.7-2.3,1.9c0,1,0.6,1.6,2.1,1.9l1,0.3
		c2.2,0.5,3.1,1.5,3.1,3.2c0,2-1.5,3.3-3.9,3.3c-2.4,0-3.9-1.2-4-3.3H148.6z"/>
	<path d="M164.3,121.9c-0.3,1.4-1.6,2.4-3.4,2.4c-2.4,0-3.7-1.4-3.7-3.9v-1.3c0-2.3,1.4-3.7,3.6-3.7c2.2,0,3.5,1.5,3.5,4v0.8h-5.8
		v0.3c0,1.6,0.9,2.6,2.4,2.6c1.1,0,1.9-0.5,2.1-1.2H164.3z M158.5,119.1h4.5c0-1.6-0.8-2.6-2.2-2.6
		C159.3,116.5,158.5,117.5,158.5,119.1z"/>
	<path d="M170,117.7c0.3-1.6,1.4-2.4,3-2.4c0.5,0,1,0.1,1.2,0.2v1.5c-0.4-0.1-0.9-0.2-1.4-0.2c-1.9,0-3,1.3-3,3.5v2.8h2.7v1.1h-2.7
		h-1.3h-1.7V123h1.7v-6.4h-1.9v-1.1h3.2v2.2H170z"/>
	<path d="M175.9,119.7v-1.2h7.6v1.2H175.9z"/>
	<path d="M186.7,121.1c0.1,1.2,1.1,2,2.7,2c1.5,0,2.5-0.8,2.5-2c0-1-0.7-1.6-2.2-2l-1-0.2c-2.1-0.5-3.1-1.5-3.1-3.2
		c0-1.9,1.5-3.2,3.7-3.2c2.1,0,3.6,1.2,3.7,3.1h-1.4c-0.1-1.2-1-1.9-2.4-1.9c-1.5,0-2.3,0.7-2.3,1.9c0,1,0.6,1.6,2.1,1.9l1,0.3
		c2.2,0.5,3.1,1.5,3.1,3.2c0,2-1.5,3.3-3.9,3.3c-2.4,0-3.9-1.2-4-3.3H186.7z"/>
	<path d="M202.3,121.9c-0.3,1.4-1.6,2.4-3.4,2.4c-2.4,0-3.7-1.4-3.7-3.9v-1.3c0-2.3,1.4-3.7,3.6-3.7c2.2,0,3.5,1.5,3.5,4v0.8h-5.8
		v0.3c0,1.6,0.9,2.6,2.4,2.6c1.1,0,1.9-0.5,2.1-1.2H202.3z M196.5,119.1h4.5c0-1.6-0.8-2.6-2.2-2.6
		C197.4,116.5,196.5,117.5,196.5,119.1z"/>
	<path d="M208,117.7c0.3-1.6,1.4-2.4,3-2.4c0.5,0,1,0.1,1.2,0.2v1.5c-0.4-0.1-0.9-0.2-1.4-0.2c-1.9,0-3,1.3-3,3.5v2.8h2.7v1.1h-2.7
		h-1.3h-1.7V123h1.7v-6.4h-1.9v-1.1h3.2v2.2H208z"/>
	<path d="M213.9,119.7v-1.2h7.6v1.2H213.9z"/>
	<path d="M230,119.5h-2.6v-1.2h4v2.4c0,2.1-1.6,3.6-3.9,3.6c-2.7,0-4.2-1.8-4.2-4.9v-2c0-3.1,1.5-4.9,4.2-4.9c2.4,0,3.9,1.4,3.9,3.8
		H230c-0.1-1.5-1.1-2.5-2.5-2.5c-1.8,0-2.8,1.2-2.8,3.6v2c0,2.4,1,3.6,2.8,3.6c1.6,0,2.5-0.9,2.5-2.4V119.5z"/>
	<path d="M233.4,124.1V123h2.9v-9.7h-2.9v-1.1h4.2V123h2.8v1.1H233.4z"/>
	<path d="M243.3,127.1v-1.2c0.1,0,0.3,0,0.5,0c0.8,0,1.2-0.4,1.6-1.4l0.2-0.5l-3.2-8.6h1.5l2.4,7.2h0.1l2.4-7.2h1.4l-3.2,8.9
		c-0.8,2.1-1.5,2.7-3.1,2.7C243.7,127.1,243.4,127.1,243.3,127.1z"/>
	<path d="M252,119.7v-1.2h7.6v1.2H252z"/>
	<path d="M267.3,120.8h-4l-1,3.3h-1.4l3.7-11.4h1.5l3.7,11.4h-1.5L267.3,120.8z M266.9,119.6l-1.6-5.3h0l-1.6,5.3H266.9z"/>
	<path d="M271.5,124.1V123h2.9v-9.7h-2.9v-1.1h4.2V123h2.8v1.1H271.5z"/>
	<path d="M280.7,121.7c0-1.5,1.1-2.4,3-2.5l2.4-0.1v-0.8c0-1.1-0.7-1.7-1.8-1.7c-1,0-1.7,0.4-1.9,1.2h-1.3c0.2-1.4,1.5-2.3,3.2-2.3
		c2,0,3.2,1,3.2,2.8v5.9h-1.3v-1.3H286c-0.4,0.9-1.3,1.4-2.6,1.4C281.8,124.2,280.7,123.2,280.7,121.7z M286.1,121.1v-1l-2.2,0.1
		c-1.2,0.1-1.8,0.6-1.8,1.5c0,0.9,0.7,1.5,1.8,1.5C285.1,123.1,286.1,122.2,286.1,121.1z"/>
	<path d="M290,119.7v-1.2h7.6v1.2H290z"/>
	<path d="M23.7,143.9v-1.2h7.6v1.2H23.7z"/>
	<path d="M37.3,137c2.2,0,3.7,1.4,3.7,3.7c0,2.2-1.5,3.6-3.7,3.6H35v4.1h-1.4V137H37.3z M35,143h2c1.7,0,2.6-0.9,2.6-2.4
		c0-1.6-0.9-2.4-2.6-2.4h-2V143z"/>
	<path d="M46.3,142c0.3-1.6,1.4-2.4,3-2.4c0.5,0,1,0.1,1.2,0.2v1.5c-0.4-0.1-0.9-0.2-1.4-0.2c-1.9,0-3,1.3-3,3.5v2.8h2.7v1.1h-2.7
		h-1.3h-1.7v-1.1h1.7v-6.4h-1.9v-1.1h3.2v2.2H46.3z"/>
	<path d="M52.3,144.7v-1.3c0-2.3,1.4-3.8,3.7-3.8s3.7,1.5,3.7,3.8v1.3c0,2.3-1.4,3.8-3.7,3.8S52.3,147,52.3,144.7z M53.6,143.5v1.1
		c0,1.7,0.9,2.7,2.4,2.7s2.4-1,2.4-2.7v-1.1c0-1.7-0.9-2.7-2.4-2.7S53.6,141.9,53.6,143.5z"/>
	<path d="M61.7,143.9v-1.2h7.6v1.2H61.7z"/>
	<path d="M75.4,137c2.2,0,3.7,1.4,3.7,3.7c0,2.2-1.5,3.6-3.7,3.6H73v4.1h-1.4V137H75.4z M73,143h2c1.7,0,2.6-0.9,2.6-2.4
		c0-1.6-0.9-2.4-2.6-2.4h-2V143z"/>
	<path d="M84.4,142c0.3-1.6,1.4-2.4,3-2.4c0.5,0,1,0.1,1.2,0.2v1.5c-0.4-0.1-0.9-0.2-1.4-0.2c-1.9,0-3,1.3-3,3.5v2.8h2.7v1.1h-2.7
		h-1.3h-1.7v-1.1h1.7v-6.4H81v-1.1h3.2v2.2H84.4z"/>
	<path d="M90.4,144.7v-1.3c0-2.3,1.4-3.8,3.7-3.8c2.3,0,3.7,1.5,3.7,3.8v1.3c0,2.3-1.4,3.8-3.7,3.8C91.8,148.5,90.4,147,90.4,144.7z
		 M91.7,143.5v1.1c0,1.7,0.9,2.7,2.4,2.7c1.5,0,2.4-1,2.4-2.7v-1.1c0-1.7-0.9-2.7-2.4-2.7C92.6,140.8,91.7,141.9,91.7,143.5z"/>
	<path d="M99.8,143.9v-1.2h7.6v1.2H99.8z"/>
	<path d="M113.4,137c2.2,0,3.7,1.4,3.7,3.7c0,2.2-1.5,3.6-3.7,3.6h-2.4v4.1h-1.4V137H113.4z M111.1,143h2c1.7,0,2.6-0.9,2.6-2.4
		c0-1.6-0.9-2.4-2.6-2.4h-2V143z"/>
	<path d="M122.4,142c0.3-1.6,1.4-2.4,3-2.4c0.5,0,1,0.1,1.2,0.2v1.5c-0.4-0.1-0.9-0.2-1.4-0.2c-1.9,0-3,1.3-3,3.5v2.8h2.7v1.1h-2.7
		H121h-1.7v-1.1h1.7v-6.4h-1.9v-1.1h3.2v2.2H122.4z"/>
	<path d="M128.4,144.7v-1.3c0-2.3,1.4-3.8,3.7-3.8c2.3,0,3.7,1.5,3.7,3.8v1.3c0,2.3-1.4,3.8-3.7,3.8
		C129.9,148.5,128.4,147,128.4,144.7z M129.7,143.5v1.1c0,1.7,0.9,2.7,2.4,2.7s2.4-1,2.4-2.7v-1.1c0-1.7-0.9-2.7-2.4-2.7
		S129.7,141.9,129.7,143.5z"/>
	<path d="M137.8,143.9v-1.2h7.6v1.2H137.8z"/>
	<path d="M148.6,145.3c0.1,1.2,1.1,2,2.7,2c1.5,0,2.5-0.8,2.5-2c0-1-0.7-1.6-2.2-2l-1-0.2c-2.1-0.5-3.1-1.5-3.1-3.2
		c0-1.9,1.5-3.2,3.7-3.2c2.1,0,3.6,1.2,3.7,3.1h-1.4c-0.1-1.2-1-1.9-2.4-1.9c-1.5,0-2.3,0.7-2.3,1.9c0,1,0.6,1.6,2.1,1.9l1,0.3
		c2.2,0.5,3.1,1.5,3.1,3.2c0,2-1.5,3.3-3.9,3.3c-2.4,0-3.9-1.2-4-3.3H148.6z"/>
	<path d="M164.3,146.1c-0.3,1.4-1.6,2.4-3.4,2.4c-2.4,0-3.7-1.4-3.7-3.9v-1.3c0-2.3,1.4-3.7,3.6-3.7c2.2,0,3.5,1.5,3.5,4v0.8h-5.8
		v0.3c0,1.6,0.9,2.6,2.4,2.6c1.1,0,1.9-0.5,2.1-1.2H164.3z M158.5,143.4h4.5c0-1.6-0.8-2.6-2.2-2.6
		C159.3,140.8,158.5,141.8,158.5,143.4z"/>
	<path d="M170,142c0.3-1.6,1.4-2.4,3-2.4c0.5,0,1,0.1,1.2,0.2v1.5c-0.4-0.1-0.9-0.2-1.4-0.2c-1.9,0-3,1.3-3,3.5v2.8h2.7v1.1h-2.7
		h-1.3h-1.7v-1.1h1.7v-6.4h-1.9v-1.1h3.2v2.2H170z"/>
	<path d="M175.9,143.9v-1.2h7.6v1.2H175.9z"/>
	<path d="M185.4,148.4V137h1.3l4.9,8.9h0.1V137h1.3v11.4h-1.3l-4.9-8.9h-0.1v8.9H185.4z"/>
	<path d="M201.1,148.4v-5.2h-4.8v5.2h-1.4V137h1.4v4.9h4.8V137h1.4v11.4H201.1z"/>
	<path d="M206.2,144.3c1.3,0,2.1,0.8,2.1,1.9c0,0.7-0.3,1.3-1.4,2.5l-1.6,1.8v0.1h3.1v0.8h-4.3v-0.6l2.3-2.6c0.9-1,1.1-1.3,1.1-1.9
		c0-0.7-0.5-1.2-1.3-1.2c-0.8,0-1.3,0.5-1.3,1.3v0H204v0C204,145.1,204.9,144.3,206.2,144.3z"/>
</g>
</svg>
