<?xml version="1.0" encoding="utf-8"?>
<!-- Generator: Adobe Illustrator 19.1.0, SVG Export Plug-In . SVG Version: 6.00 Build 0)  -->
<svg version="1.1" id="Слой_1" xmlns="http://www.w3.org/2000/svg" xmlns:xlink="http://www.w3.org/1999/xlink" x="0px" y="0px"
	 viewBox="0 0 1135.7 545.4" style="enable-background:new 0 0 1135.7 545.4;" xml:space="preserve">
<style type="text/css">
	.st0{fill:#808080;}
</style>
<path d="M134.6,63.9h21v3.4h-8.7v24.6h-3.5V67.3h-8.7V63.9z"/>
<path d="M164.2,71.7l6.8,14.8l6-14.8h3.7l-12,28.3h-3.4l3.9-9.5l-8.7-18.8H164.2z"/>
<path d="M187.2,71.7h3.4v3.7c1.7-2.7,4.2-4,7.4-4c4,0,6.4,2.4,6.6,6.7h-3.4c-0.3-2.4-1.6-3.7-3.9-3.7c-1.9,0-3.5,0.9-4.8,2.7
	c-1.3,1.8-2,4.3-2,7.5v7.3h-3.4V71.7z"/>
<path d="M209.7,77.7h19.6v3h-19.6V77.7z"/>
<path d="M242.6,63.9h3.4l10,28h-3.7l-2.5-7.5h-11l-2.5,7.5h-3.6L242.6,63.9z M248.6,81.1l-4.3-12.6L240,81.1H248.6z"/>
<path d="M259.1,63.9h8.9v20.4c0,3.3,1.4,4.9,4.2,4.9c2.6,0,4.2-1.6,4.7-4.9l3,0.6c-0.7,4.8-3.5,7.3-7.7,7.3c-2.3,0-4.2-0.7-5.6-2.1
	c-1.3-1.4-2-3.3-2-5.8V66.9h-5.6V63.9z"/>
<path d="M288.3,81.2c1.6-1.1,3.8-1.7,6.7-1.7h4.1v-0.9c0-1.5-0.4-2.5-1.3-3.2c-0.9-0.6-2-1-3.3-1c-1.2,0-2.1,0.3-3,1
	s-1.4,1.5-1.8,2.5l-3-0.8c0.4-1.7,1.4-3.1,2.8-4.1c1.4-1,3.1-1.5,4.9-1.5c2.5,0,4.4,0.6,5.8,1.9c1.4,1.2,2.1,3.2,2.1,5.9v12.7h-2.7
	l-0.5-2.8c-0.6,0.9-1.6,1.7-2.9,2.3c-1.3,0.6-2.7,0.9-4.2,0.9c-1.8,0-3.3-0.5-4.5-1.6c-1.2-1.1-1.8-2.6-1.8-4.6
	C285.9,83.9,286.7,82.3,288.3,81.2z M292.6,89.2c1.6,0,3.1-0.5,4.4-1.5s2-2.6,2-4.6v-0.6h-4.4c-3.4,0-5.4,1.4-5.4,3.7
	C289.3,88,290.6,89.2,292.6,89.2z"/>
<path d="M308.8,77.7h19.6v3h-19.6V77.7z"/>
<path d="M341.7,63.9h3.4l10,28h-3.7l-2.5-7.5h-11l-2.5,7.5h-3.6L341.7,63.9z M347.7,81.1l-4.3-12.6l-4.3,12.6H347.7z"/>
<path d="M363.1,85.2c0.9,2.5,2.8,4,5.5,4c1.2,0,2.2-0.3,3.1-0.8s1.2-1.3,1.2-2.3c0-0.8-0.4-1.4-1.2-1.8c-0.8-0.4-2.1-0.8-4-1.2
	c-2.1-0.4-3.7-1.1-4.8-1.9c-1.1-0.8-1.7-2.1-1.7-3.9c0-1.8,0.7-3.2,2-4.2s2.9-1.6,4.9-1.6c3.3,0,5.8,1.5,7.4,4.4l-2.7,1.9
	c-1.2-2.1-2.8-3.2-4.8-3.2c-1,0-1.8,0.2-2.5,0.7s-1,1.1-1,2c0,1.6,1.5,2.5,4.7,3.1c0.9,0.2,1.6,0.4,2.2,0.5c0.6,0.2,1.2,0.4,1.9,0.7
	s1.2,0.6,1.6,1c0.8,0.7,1.5,1.9,1.5,3.3c0,2-0.7,3.6-2.2,4.7s-3.3,1.7-5.5,1.7c-2.1,0-3.9-0.5-5.5-1.5c-1.6-1-2.7-2.5-3.3-4.3
	L363.1,85.2z"/>
<path d="M384.7,71.7h3.4v2.7c0.6-0.9,1.5-1.6,2.6-2.1s2.3-0.9,3.6-0.9c2.9,0,5.2,1,6.8,2.9c1.6,1.9,2.5,4.4,2.5,7.6
	s-0.8,5.7-2.4,7.6s-3.9,2.8-6.8,2.8c-1.3,0-2.5-0.3-3.6-0.8s-1.9-1.2-2.5-2.1v10.7h-3.4V71.7z M387.8,81.8c0,2.2,0.5,4,1.6,5.3
	c1.1,1.3,2.6,2,4.5,2s3.4-0.7,4.5-2c1.1-1.4,1.6-3.1,1.6-5.3s-0.5-4-1.6-5.3c-1.1-1.4-2.6-2.1-4.5-2.1s-3.4,0.7-4.5,2.1
	C388.4,77.9,387.8,79.6,387.8,81.8z"/>
<path d="M408,77.7h19.6v3H408V77.7z"/>
<path d="M440.9,63.9h3.4l10,28h-3.7l-2.5-7.5h-11l-2.5,7.5h-3.6L440.9,63.9z M446.9,81.1l-4.3-12.6l-4.3,12.6H446.9z"/>
<path d="M457.4,63.9h8.9v20.4c0,3.3,1.4,4.9,4.2,4.9c2.6,0,4.2-1.6,4.7-4.9l3,0.6c-0.7,4.8-3.5,7.3-7.7,7.3c-2.3,0-4.2-0.7-5.6-2.1
	c-1.3-1.4-2-3.3-2-5.8V66.9h-5.6V63.9z"/>
<path d="M486.6,81.2c1.6-1.1,3.8-1.7,6.7-1.7h4.1v-0.9c0-1.5-0.4-2.5-1.3-3.2c-0.9-0.6-2-1-3.3-1c-1.2,0-2.1,0.3-3,1
	s-1.4,1.5-1.8,2.5l-3-0.8c0.4-1.7,1.4-3.1,2.8-4.1c1.4-1,3.1-1.5,4.9-1.5c2.5,0,4.4,0.6,5.8,1.9c1.4,1.2,2.1,3.2,2.1,5.9v12.7H498
	l-0.5-2.8c-0.6,0.9-1.6,1.7-2.9,2.3c-1.3,0.6-2.7,0.9-4.2,0.9c-1.8,0-3.3-0.5-4.5-1.6c-1.2-1.1-1.8-2.6-1.8-4.6
	C484.2,83.9,485,82.3,486.6,81.2z M490.9,89.2c1.6,0,3.1-0.5,4.4-1.5s2-2.6,2-4.6v-0.6H493c-3.4,0-5.4,1.4-5.4,3.7
	C487.6,88,488.9,89.2,490.9,89.2z"/>
<path d="M507.1,77.7h19.6v3h-19.6V77.7z"/>
<path d="M533.2,88.9h6.8V66.9h-6.8v-3h17v3h-6.8v21.9h6.8v3h-17V88.9z"/>
<path d="M556.6,63.9h8.9v20.4c0,3.3,1.4,4.9,4.2,4.9c2.6,0,4.2-1.6,4.7-4.9l3,0.6c-0.7,4.8-3.5,7.3-7.7,7.3c-2.3,0-4.2-0.7-5.6-2.1
	c-1.3-1.4-2-3.3-2-5.8V66.9h-5.6V63.9z"/>
<path d="M584.5,74.4c1.7-2,4.1-3,7-3c3,0,5.4,0.9,7,2.8c1.7,1.9,2.5,4.2,2.5,6.9v1.4h-15.8c0.1,2,0.7,3.6,1.8,4.8s2.6,1.8,4.4,1.8
	c2.9,0,5-1.3,6.5-4l2.7,1.4c-2,3.8-5,5.6-9.2,5.6c-2.9,0-5.2-1-7-2.9s-2.7-4.5-2.7-7.4C581.9,78.9,582.8,76.4,584.5,74.4z
	 M597.5,79.5c-0.6-3.2-2.7-5-6-5c-3.1,0-5.3,1.9-6,5H597.5z"/>
<path d="M606.2,77.7h19.6v3h-19.6V77.7z"/>
<path d="M632.4,63.9H643c2.7,0,4.7,0.7,6.2,2.1c1.4,1.4,2.2,3.4,2.2,5.9s-0.7,4.4-2.2,5.9c-1.4,1.4-3.5,2.1-6.2,2.1h-7.1v12h-3.5
	V63.9z M642.9,76.6c3.2,0,4.8-1.5,4.8-4.6s-1.6-4.6-4.8-4.6h-7v9.3H642.9z"/>
<path d="M657.5,63.6h3.4v11.9c0.8-1.2,1.8-2.1,3.1-2.9c1.3-0.8,2.7-1.2,4.2-1.2c4.1,0,6.2,2.2,6.2,6.6v13.9H671V78.7
	c0-2.8-1.2-4.2-3.7-4.2c-1.7,0-3.2,0.8-4.5,2.4c-1.3,1.6-1.9,3.8-1.9,6.6v8.4h-3.4V63.6z"/>
<path d="M683.7,74.4c1.7-2,4.1-3,7-3c3,0,5.4,0.9,7,2.8c1.7,1.9,2.5,4.2,2.5,6.9v1.4h-15.8c0.1,2,0.7,3.6,1.8,4.8s2.6,1.8,4.4,1.8
	c2.9,0,5-1.3,6.5-4l2.7,1.4c-2,3.8-5,5.6-9.2,5.6c-2.9,0-5.2-1-7-2.9s-2.7-4.5-2.7-7.4C681,78.9,681.9,76.4,683.7,74.4z M696.7,79.5
	c-0.6-3.2-2.7-5-6-5c-3.1,0-5.3,1.9-6,5H696.7z"/>
<path d="M705.4,77.7H725v3h-19.6V77.7z"/>
<path d="M729.5,63.9h21v3.4h-8.7v24.6h-3.5V67.3h-8.7V63.9z"/>
<path d="M756.7,63.6h3.4v11.9c0.8-1.2,1.8-2.1,3.1-2.9c1.3-0.8,2.7-1.2,4.2-1.2c4.1,0,6.2,2.2,6.2,6.6v13.9h-3.4V78.7
	c0-2.8-1.2-4.2-3.7-4.2c-1.7,0-3.2,0.8-4.5,2.4c-1.3,1.6-1.9,3.8-1.9,6.6v8.4h-3.4V63.6z"/>
<path d="M782.1,71.7h3.4v3.7c1.7-2.7,4.2-4,7.4-4c4,0,6.4,2.4,6.6,6.7h-3.4c-0.3-2.4-1.6-3.7-3.9-3.7c-1.9,0-3.5,0.9-4.8,2.7
	c-1.3,1.8-2,4.3-2,7.5v7.3h-3.4V71.7z"/>
<path d="M804.5,77.7h19.6v3h-19.6V77.7z"/>
<path d="M837.4,63.9h3.4l10,28h-3.7l-2.5-7.5h-11l-2.5,7.5h-3.6L837.4,63.9z M843.4,81.1l-4.3-12.6l-4.3,12.6H843.4z"/>
<path d="M858.8,85.2c0.9,2.5,2.8,4,5.5,4c1.2,0,2.2-0.3,3.1-0.8s1.2-1.3,1.2-2.3c0-0.8-0.4-1.4-1.2-1.8c-0.8-0.4-2.1-0.8-4-1.2
	c-2.1-0.4-3.7-1.1-4.8-1.9c-1.1-0.8-1.7-2.1-1.7-3.9c0-1.8,0.7-3.2,2-4.2s2.9-1.6,4.9-1.6c3.3,0,5.8,1.5,7.4,4.4l-2.7,1.9
	c-1.2-2.1-2.8-3.2-4.8-3.2c-1,0-1.8,0.2-2.5,0.7s-1,1.1-1,2c0,1.6,1.5,2.5,4.7,3.1c0.9,0.2,1.6,0.4,2.2,0.5c0.6,0.2,1.2,0.4,1.9,0.7
	s1.2,0.6,1.6,1c0.8,0.7,1.5,1.9,1.5,3.3c0,2-0.7,3.6-2.2,4.7s-3.3,1.7-5.5,1.7c-2.1,0-3.9-0.5-5.5-1.5c-1.6-1-2.7-2.5-3.3-4.3
	L858.8,85.2z"/>
<path d="M880.8,71.7h3.4v3.7c0.7-1.2,1.7-2.2,2.9-2.9c1.2-0.8,2.5-1.1,3.9-1.1c4.1,0,6.2,2.5,6.2,6.4v14h-3.4V78.6
	c0-2.8-1.2-4.1-3.7-4.1c-1.7,0-3.1,0.8-4.2,2.5s-1.7,3.9-1.7,6.8v8.1h-3.4V71.7z"/>
<path d="M903.7,77.7h19.6v3h-19.6V77.7z"/>
<path d="M931.5,82.6c1.1,4.2,3.5,6.2,7.1,6.2c3.5,0,5.8-1.8,5.8-5.1c0-1.2-0.4-2-1-2.5c-0.3-0.3-0.7-0.5-1.3-0.8
	c-0.6-0.3-1.2-0.5-1.7-0.6c-0.5-0.2-1.3-0.4-2.3-0.6s-1.8-0.4-2.4-0.6c-0.6-0.2-1.3-0.5-2.1-0.9s-1.4-0.9-1.9-1.4
	c-0.9-1-1.7-2.8-1.7-4.9c0-2.3,0.8-4.2,2.3-5.6c1.5-1.5,3.6-2.2,6.3-2.2c2.3,0,4.1,0.6,5.6,1.7s2.5,2.6,3.2,4.3l-3.1,1.6
	c-1.2-2.8-3.1-4.2-5.7-4.2c-3.1,0-5,1.6-5,4.3c0,1.3,0.5,2.3,1.5,2.9s2.7,1.2,4.9,1.8c1,0.3,1.9,0.5,2.5,0.7s1.3,0.5,2.1,0.9
	s1.4,0.8,1.8,1.3c0.9,0.9,1.5,2.5,1.5,4.3c0,2.9-0.8,5.2-2.5,6.7c-1.7,1.5-3.9,2.2-6.8,2.2c-2.7,0-5-0.7-6.8-2.1s-3.1-3.5-3.6-6.2
	L931.5,82.6z"/>
<path d="M956.3,74.4c1.7-2,4.1-3,7-3c3,0,5.4,0.9,7,2.8c1.7,1.9,2.5,4.2,2.5,6.9v1.4h-15.8c0.1,2,0.7,3.6,1.8,4.8s2.6,1.8,4.4,1.8
	c2.9,0,5-1.3,6.5-4l2.7,1.4c-2,3.8-5,5.6-9.2,5.6c-2.9,0-5.2-1-7-2.9s-2.7-4.5-2.7-7.4C953.7,78.9,954.6,76.4,956.3,74.4z
	 M969.3,79.5c-0.6-3.2-2.7-5-6-5c-3.1,0-5.3,1.9-6,5H969.3z"/>
<path d="M980.3,71.7h3.4v3.7c1.7-2.7,4.2-4,7.4-4c4,0,6.4,2.4,6.6,6.7h-3.4c-0.3-2.4-1.6-3.7-3.9-3.7c-1.9,0-3.5,0.9-4.8,2.7
	c-1.3,1.8-2,4.3-2,7.5v7.3h-3.4V71.7z"/>
<path d="M1002.8,77.7h19.6v3h-19.6V77.7z"/>
<g>
	<path d="M1026.9,63.9h21v3.4h-8.7v24.6h-3.5V67.3h-8.7V63.9z"/>
	<path d="M1056.4,71.7l6.8,14.8l6-14.8h3.7l-12,28.3h-3.4l3.9-9.5l-8.7-18.8H1056.4z"/>
	<path d="M1079.5,71.7h3.4v3.7c1.7-2.7,4.2-4,7.4-4c4,0,6.4,2.4,6.6,6.7h-3.4c-0.3-2.4-1.6-3.7-3.9-3.7c-1.9,0-3.5,0.9-4.8,2.7
		c-1.3,1.8-2,4.3-2,7.5v7.3h-3.4V71.7z"/>
</g>
<path d="M1101.9,77.7h19.6v3h-19.6V77.7z"/>
<path d="M143.4,139.9h3.4l10,28h-3.7l-2.5-7.5h-11l-2.5,7.5h-3.6L143.4,139.9z M149.4,157.1l-4.3-12.6l-4.3,12.6H149.4z"/>
<path d="M162.4,147.7h3.4v3.7c1.7-2.7,4.2-4,7.4-4c4,0,6.4,2.4,6.6,6.7h-3.4c-0.3-2.4-1.6-3.7-3.9-3.7c-1.9,0-3.5,0.9-4.8,2.7
	c-1.3,1.8-2,4.3-2,7.5v7.3h-3.4V147.7z"/>
<path d="M187.7,165.4c-1-0.7-1.4-1.8-1.4-3.1c0-1.8,1.1-3.3,2.9-4c-0.8-1.1-1.2-2.5-1.2-4.1c0-2.1,0.7-3.7,2-4.9s3-1.9,5.1-1.9
	c1.4,0,2.8,0.4,4,1.1l4.2-2.2l1.5,2.8l-3.4,1.8c0.6,1,0.8,2.1,0.8,3.4c0,2.1-0.7,3.7-2,4.9c-1.3,1.2-3,1.8-5.1,1.8
	c-1.4,0-2.6-0.3-3.7-0.8c-1.2,0.5-1.8,1.2-1.8,2.1c0,1.1,0.9,1.7,2.8,1.7h5.2c4.3,0,6.8,2,6.8,5.6c0,2.3-0.9,4.1-2.8,5.2
	s-4.1,1.7-6.7,1.7c-2.9,0-5.2-0.6-6.9-1.7s-2.5-2.8-2.5-4.9C185.6,167.9,186.3,166.5,187.7,165.4z M190.6,172.4c1.1,0.7,2.5,1,4.3,1
	c3.8,0,6-1.4,6-3.7c0-2-1.1-3-3.4-3h-4.7c-0.8,0-1.5-0.1-2.1-0.2c-1.2,0.6-1.7,1.6-1.7,3C189,170.8,189.5,171.7,190.6,172.4z
	 M191.3,154.2c0,1.2,0.4,2.1,1.1,2.8s1.6,1,2.7,1s2-0.3,2.7-1c0.7-0.7,1.1-1.6,1.1-2.9s-0.4-2.2-1.1-2.9c-0.7-0.7-1.6-1-2.7-1
	s-2,0.4-2.7,1S191.3,153,191.3,154.2z"/>
<path d="M209.7,153.7h19.6v3h-19.6V153.7z"/>
<path d="M237.2,139.9h3.5v24.6H255v3.4h-17.8V139.9z"/>
<path d="M263.3,147.7l6.8,14.8l6-14.8h3.7l-12,28.3h-3.4l3.9-9.5l-8.7-18.8H263.3z"/>
<path d="M288.8,161.2c0.9,2.5,2.8,4,5.5,4c1.2,0,2.2-0.3,3.1-0.8s1.2-1.3,1.2-2.3c0-0.8-0.4-1.4-1.2-1.8c-0.8-0.4-2.1-0.8-4-1.2
	c-2.1-0.4-3.7-1.1-4.8-1.9c-1.1-0.8-1.7-2.1-1.7-3.9c0-1.8,0.7-3.2,2-4.2s2.9-1.6,4.9-1.6c3.3,0,5.8,1.5,7.4,4.4l-2.7,1.9
	c-1.2-2.1-2.8-3.2-4.8-3.2c-1,0-1.8,0.2-2.5,0.7s-1,1.1-1,2c0,1.6,1.5,2.5,4.7,3.1c0.9,0.2,1.6,0.4,2.2,0.5c0.6,0.2,1.2,0.4,1.9,0.7
	s1.2,0.6,1.6,1c0.8,0.7,1.5,1.9,1.5,3.3c0,2-0.7,3.6-2.2,4.7s-3.3,1.7-5.5,1.7c-2.1,0-3.9-0.5-5.5-1.5c-1.6-1-2.7-2.5-3.3-4.3
	L288.8,161.2z"/>
<path d="M308.8,153.7h19.6v3h-19.6V153.7z"/>
<path d="M335.6,139.9l7.9,23l7.8-23h3.7l-9.8,28h-3.4l-9.8-28H335.6z"/>
<path d="M362.6,157.2c1.6-1.1,3.8-1.7,6.7-1.7h4.1v-0.9c0-1.5-0.4-2.5-1.3-3.2c-0.9-0.6-2-1-3.3-1c-1.2,0-2.1,0.3-3,1
	s-1.4,1.5-1.8,2.5l-3-0.8c0.4-1.7,1.4-3.1,2.8-4.1c1.4-1,3.1-1.5,4.9-1.5c2.5,0,4.4,0.6,5.8,1.9c1.4,1.2,2.1,3.2,2.1,5.9v12.7h-2.7
	l-0.5-2.8c-0.6,0.9-1.6,1.7-2.9,2.3c-1.3,0.6-2.7,0.9-4.2,0.9c-1.8,0-3.3-0.5-4.5-1.6c-1.2-1.1-1.8-2.6-1.8-4.6
	C360.2,159.9,361,158.3,362.6,157.2z M367,165.2c1.6,0,3.1-0.5,4.4-1.5s2-2.6,2-4.6v-0.6H369c-3.4,0-5.4,1.4-5.4,3.7
	C363.7,164,365,165.2,367,165.2z"/>
<path d="M383.1,139.9h8.9v20.4c0,3.3,1.4,4.9,4.2,4.9c2.6,0,4.2-1.6,4.7-4.9l3,0.6c-0.7,4.8-3.5,7.3-7.7,7.3c-2.3,0-4.2-0.7-5.6-2.1
	c-1.3-1.4-2-3.3-2-5.8v-17.4h-5.6V139.9z"/>
<path d="M408,153.7h19.6v3H408V153.7z"/>
<path d="M435.5,139.9h3.5v24.6h14.3v3.4h-17.8V139.9z"/>
<path d="M460.6,150.4c1.7-2,4.1-3,7-3c3,0,5.4,0.9,7,2.8c1.7,1.9,2.5,4.2,2.5,6.9v1.4h-15.8c0.1,2,0.7,3.6,1.8,4.8s2.6,1.8,4.4,1.8
	c2.9,0,5-1.3,6.5-4l2.7,1.4c-2,3.8-5,5.6-9.2,5.6c-2.9,0-5.2-1-7-2.9s-2.7-4.5-2.7-7.4C458,154.9,458.9,152.4,460.6,150.4z
	 M473.6,155.5c-0.6-3.2-2.7-5-6-5c-3.1,0-5.3,1.9-6,5H473.6z"/>
<path d="M483.8,147.7h3.4v13.3c0,2.8,1.2,4.1,3.7,4.1c1.7,0,3-0.8,4.2-2.5s1.7-3.9,1.7-6.8v-8.1h3.4v20.2h-3.4v-3.7
	c-0.7,1.2-1.7,2.2-2.9,2.9c-1.2,0.7-2.5,1.1-3.9,1.1c-4.1,0-6.2-2.4-6.2-6.4V147.7z"/>
<path d="M507.1,153.7h19.6v3h-19.6V153.7z"/>
<path d="M534.3,143.3c2.2-2.5,4.9-3.7,8.3-3.7c2.6,0,4.8,0.8,6.5,2.3s2.9,3.6,3.5,6.2l-3.3,1c-1.3-4.2-3.3-6.2-6.7-6.2
	c-2.5,0-4.4,0.9-5.8,2.7c-1.4,1.8-2.1,4.6-2.1,8.3c0,3.7,0.7,6.4,2.1,8.2s3.3,2.7,5.8,2.7c3.8,0,5.9-2.6,6.3-7.7h-6.3v-3.4h9.9v14.1
	h-2.9l-0.2-3.8c-0.6,1.3-1.6,2.3-2.8,3c-1.3,0.7-2.7,1-4.2,1c-3.2,0-5.9-1.2-8.1-3.7c-2.2-2.5-3.2-6-3.2-10.6
	C531,149.3,532.1,145.7,534.3,143.3z"/>
<path d="M556.6,139.9h8.9v20.4c0,3.3,1.4,4.9,4.2,4.9c2.6,0,4.2-1.6,4.7-4.9l3,0.6c-0.7,4.8-3.5,7.3-7.7,7.3c-2.3,0-4.2-0.7-5.6-2.1
	c-1.3-1.4-2-3.3-2-5.8v-17.4h-5.6V139.9z"/>
<path d="M585.5,147.7l6.8,14.8l6-14.8h3.7l-12,28.3h-3.4l3.9-9.5l-8.7-18.8H585.5z"/>
<path d="M606.2,153.7h19.6v3h-19.6V153.7z"/>
<path d="M633.4,143.3c2.2-2.5,4.9-3.7,8.3-3.7c2.6,0,4.8,0.8,6.5,2.3s2.9,3.6,3.5,6.2l-3.3,1c-1.3-4.2-3.3-6.2-6.7-6.2
	c-2.5,0-4.4,0.9-5.8,2.7c-1.4,1.8-2.1,4.6-2.1,8.3c0,3.7,0.7,6.4,2.1,8.2s3.3,2.7,5.8,2.7c3.8,0,5.9-2.6,6.3-7.7h-6.3v-3.4h9.9v14.1
	h-2.9l-0.2-3.8c-0.6,1.3-1.6,2.3-2.8,3c-1.3,0.7-2.7,1-4.2,1c-3.2,0-5.9-1.2-8.1-3.7c-2.2-2.5-3.2-6-3.2-10.6
	C630.2,149.3,631.3,145.7,633.4,143.3z"/>
<path d="M655.7,139.9h8.9v20.4c0,3.3,1.4,4.9,4.2,4.9c2.6,0,4.2-1.6,4.7-4.9l3,0.6c-0.7,4.8-3.5,7.3-7.7,7.3c-2.3,0-4.2-0.7-5.6-2.1
	c-1.3-1.4-2-3.3-2-5.8v-17.4h-5.6V139.9z"/>
<path d="M682.5,147.7h3.4v3.7c0.7-1.2,1.7-2.2,2.9-2.9c1.2-0.8,2.5-1.1,3.9-1.1c4.1,0,6.2,2.5,6.2,6.4v14h-3.4v-13.3
	c0-2.8-1.2-4.1-3.7-4.1c-1.7,0-3.1,0.8-4.2,2.5s-1.7,3.9-1.7,6.8v8.1h-3.4V147.7z"/>
<path d="M705.4,153.7H725v3h-19.6V153.7z"/>
<path d="M732.9,139.9h3.5v24.6h14.3v3.4h-17.8V139.9z"/>
<path d="M758,150.4c1.7-2,4.1-3,7-3c3,0,5.4,0.9,7,2.8c1.7,1.9,2.5,4.2,2.5,6.9v1.4h-15.8c0.1,2,0.7,3.6,1.8,4.8s2.6,1.8,4.4,1.8
	c2.9,0,5-1.3,6.5-4l2.7,1.4c-2,3.8-5,5.6-9.2,5.6c-2.9,0-5.2-1-7-2.9s-2.7-4.5-2.7-7.4C755.4,154.9,756.3,152.4,758,150.4z
	 M771,155.5c-0.6-3.2-2.7-5-6-5c-3.1,0-5.3,1.9-6,5H771z"/>
<path d="M781.3,147.7h3.4v13.3c0,2.8,1.2,4.1,3.7,4.1c1.7,0,3-0.8,4.2-2.5s1.7-3.9,1.7-6.8v-8.1h3.4v20.2h-3.4v-3.7
	c-0.7,1.2-1.7,2.2-2.9,2.9c-1.2,0.7-2.5,1.1-3.9,1.1c-4.1,0-6.2-2.4-6.2-6.4V147.7z"/>
<path d="M804.5,153.7h19.6v3h-19.6V153.7z"/>
<path d="M832.4,158.6c1.1,4.2,3.5,6.2,7.1,6.2c3.5,0,5.8-1.8,5.8-5.1c0-1.2-0.4-2-1-2.5c-0.3-0.3-0.7-0.5-1.3-0.8
	c-0.6-0.3-1.2-0.5-1.7-0.6c-0.5-0.2-1.3-0.4-2.3-0.6s-1.8-0.4-2.4-0.6c-0.6-0.2-1.3-0.5-2.1-0.9s-1.4-0.9-1.9-1.4
	c-0.9-1-1.7-2.8-1.7-4.9c0-2.3,0.8-4.2,2.3-5.6c1.5-1.5,3.6-2.2,6.3-2.2c2.3,0,4.1,0.6,5.6,1.7s2.5,2.6,3.2,4.3l-3.1,1.6
	c-1.2-2.8-3.1-4.2-5.7-4.2c-3.1,0-5,1.6-5,4.3c0,1.3,0.5,2.3,1.5,2.9s2.7,1.2,4.9,1.8c1,0.3,1.9,0.5,2.5,0.7s1.3,0.5,2.1,0.9
	s1.4,0.8,1.8,1.3c0.9,0.9,1.5,2.5,1.5,4.3c0,2.9-0.8,5.2-2.5,6.7c-1.7,1.5-3.9,2.2-6.8,2.2c-2.7,0-5-0.7-6.8-2.1s-3.1-3.5-3.6-6.2
	L832.4,158.6z"/>
<path d="M857.2,150.4c1.7-2,4.1-3,7-3c3,0,5.4,0.9,7,2.8c1.7,1.9,2.5,4.2,2.5,6.9v1.4H858c0.1,2,0.7,3.6,1.8,4.8s2.6,1.8,4.4,1.8
	c2.9,0,5-1.3,6.5-4l2.7,1.4c-2,3.8-5,5.6-9.2,5.6c-2.9,0-5.2-1-7-2.9s-2.7-4.5-2.7-7.4C854.5,154.9,855.4,152.4,857.2,150.4z
	 M870.2,155.5c-0.6-3.2-2.7-5-6-5c-3.1,0-5.3,1.9-6,5H870.2z"/>
<path d="M881.2,147.7h3.4v3.7c1.7-2.7,4.2-4,7.4-4c4,0,6.4,2.4,6.6,6.7h-3.4c-0.3-2.4-1.6-3.7-3.9-3.7c-1.9,0-3.5,0.9-4.8,2.7
	c-1.3,1.8-2,4.3-2,7.5v7.3h-3.4V147.7z"/>
<path d="M903.7,153.7h19.6v3h-19.6V153.7z"/>
<path d="M936.6,139.9h3.4l10,28h-3.7l-2.5-7.5h-11l-2.5,7.5h-3.6L936.6,139.9z M942.6,157.1l-4.3-12.6l-4.3,12.6H942.6z"/>
<path d="M953.1,139.9h8.9v20.4c0,3.3,1.4,4.9,4.2,4.9c2.6,0,4.2-1.6,4.7-4.9l3,0.6c-0.7,4.8-3.5,7.3-7.7,7.3c-2.3,0-4.2-0.7-5.6-2.1
	c-1.3-1.4-2-3.3-2-5.8v-17.4h-5.6V139.9z"/>
<path d="M982.3,157.2c1.6-1.1,3.8-1.7,6.7-1.7h4.1v-0.9c0-1.5-0.4-2.5-1.3-3.2c-0.9-0.6-2-1-3.3-1c-1.2,0-2.1,0.3-3,1
	s-1.4,1.5-1.8,2.5l-3-0.8c0.4-1.7,1.4-3.1,2.8-4.1c1.4-1,3.1-1.5,4.9-1.5c2.5,0,4.4,0.6,5.8,1.9c1.4,1.2,2.1,3.2,2.1,5.9v12.7h-2.7
	l-0.5-2.8c-0.6,0.9-1.6,1.7-2.9,2.3c-1.3,0.6-2.7,0.9-4.2,0.9c-1.8,0-3.3-0.5-4.5-1.6c-1.2-1.1-1.8-2.6-1.8-4.6
	C979.9,159.9,980.7,158.3,982.3,157.2z M986.6,165.2c1.6,0,3.1-0.5,4.4-1.5s2-2.6,2-4.6v-0.6h-4.4c-3.4,0-5.4,1.4-5.4,3.7
	C983.3,164,984.6,165.2,986.6,165.2z"/>
<path d="M1002.8,153.7h19.6v3h-19.6V153.7z"/>
<path d="M1035.7,139.9h3.4l10,28h-3.7l-2.5-7.5h-11l-2.5,7.5h-3.6L1035.7,139.9z M1041.7,157.1l-4.3-12.6l-4.3,12.6H1041.7z"/>
<path d="M1054.7,147.7h3.4v3.7c1.7-2.7,4.2-4,7.4-4c4,0,6.4,2.4,6.6,6.7h-3.4c-0.3-2.4-1.6-3.7-3.9-3.7c-1.9,0-3.5,0.9-4.8,2.7
	c-1.3,1.8-2,4.3-2,7.5v7.3h-3.4V147.7z"/>
<path d="M1080,165.4c-1-0.7-1.4-1.8-1.4-3.1c0-1.8,1.1-3.3,2.9-4c-0.8-1.1-1.2-2.5-1.2-4.1c0-2.1,0.7-3.7,2-4.9s3-1.9,5.1-1.9
	c1.4,0,2.8,0.4,4,1.1l4.2-2.2l1.5,2.8l-3.4,1.8c0.6,1,0.8,2.1,0.8,3.4c0,2.1-0.7,3.7-2,4.9c-1.3,1.2-3,1.8-5.1,1.8
	c-1.4,0-2.6-0.3-3.7-0.8c-1.2,0.5-1.8,1.2-1.8,2.1c0,1.1,0.9,1.7,2.8,1.7h5.2c4.3,0,6.8,2,6.8,5.6c0,2.3-0.9,4.1-2.8,5.2
	s-4.1,1.7-6.7,1.7c-2.9,0-5.2-0.6-6.9-1.7s-2.5-2.8-2.5-4.9C1077.9,167.9,1078.6,166.5,1080,165.4z M1082.9,172.4
	c1.1,0.7,2.5,1,4.3,1c3.8,0,6-1.4,6-3.7c0-2-1.1-3-3.4-3h-4.7c-0.8,0-1.5-0.1-2.1-0.2c-1.2,0.6-1.7,1.6-1.7,3
	C1081.2,170.8,1081.8,171.7,1082.9,172.4z M1083.5,154.2c0,1.2,0.4,2.1,1.1,2.8s1.6,1,2.7,1s2-0.3,2.7-1c0.7-0.7,1.1-1.6,1.1-2.9
	s-0.4-2.2-1.1-2.9c-0.7-0.7-1.6-1-2.7-1s-2,0.4-2.7,1S1083.5,153,1083.5,154.2z"/>
<path d="M1101.9,153.7h19.6v3h-19.6V153.7z"/>
<path d="M138,215.9h3.5v24.6h14.3v3.4H138V215.9z"/>
<path d="M164.2,223.7l6.8,14.8l6-14.8h3.7l-12,28.3h-3.4l3.9-9.5l-8.7-18.8H164.2z"/>
<path d="M189.6,237.2c0.9,2.5,2.8,4,5.5,4c1.2,0,2.2-0.3,3.1-0.8s1.2-1.3,1.2-2.3c0-0.8-0.4-1.4-1.2-1.8c-0.8-0.4-2.1-0.8-4-1.2
	c-2.1-0.4-3.7-1.1-4.8-1.9c-1.1-0.8-1.7-2.1-1.7-3.9c0-1.8,0.7-3.2,2-4.2s2.9-1.6,4.9-1.6c3.3,0,5.8,1.5,7.4,4.4l-2.7,1.9
	c-1.2-2.1-2.8-3.2-4.8-3.2c-1,0-1.8,0.2-2.5,0.7s-1,1.1-1,2c0,1.6,1.5,2.5,4.7,3.1c0.9,0.2,1.6,0.4,2.2,0.5c0.6,0.2,1.2,0.4,1.9,0.7
	s1.2,0.6,1.6,1c0.8,0.7,1.5,1.9,1.5,3.3c0,2-0.7,3.6-2.2,4.7s-3.3,1.7-5.5,1.7c-2.1,0-3.9-0.5-5.5-1.5c-1.6-1-2.7-2.5-3.3-4.3
	L189.6,237.2z"/>
<path d="M209.7,229.7h19.6v3h-19.6V229.7z"/>
<path d="M237.2,215.9h3.5v24.6H255v3.4h-17.8V215.9z"/>
<path d="M262.3,226.4c1.7-2,4.1-3,7-3c3,0,5.4,0.9,7,2.8c1.7,1.9,2.5,4.2,2.5,6.9v1.4h-15.8c0.1,2,0.7,3.6,1.8,4.8s2.6,1.8,4.4,1.8
	c2.9,0,5-1.3,6.5-4l2.7,1.4c-2,3.8-5,5.6-9.2,5.6c-2.9,0-5.2-1-7-2.9s-2.7-4.5-2.7-7.4C259.7,230.9,260.6,228.4,262.3,226.4z
	 M275.3,231.5c-0.6-3.2-2.7-5-6-5c-3.1,0-5.3,1.9-6,5H275.3z"/>
<path d="M285.6,223.7h3.4v13.3c0,2.8,1.2,4.1,3.7,4.1c1.7,0,3-0.8,4.2-2.5s1.7-3.9,1.7-6.8v-8.1h3.4v20.2h-3.4v-3.7
	c-0.7,1.2-1.7,2.2-2.9,2.9c-1.2,0.7-2.5,1.1-3.9,1.1c-4.1,0-6.2-2.4-6.2-6.4V223.7z"/>
<path d="M308.8,229.7h19.6v3h-19.6V229.7z"/>
<path d="M336.3,215.9h3.5v24.6h14.3v3.4h-17.8V215.9z"/>
<path d="M361.5,226.4c1.7-2,4.1-3,7-3c3,0,5.4,0.9,7,2.8c1.7,1.9,2.5,4.2,2.5,6.9v1.4h-15.8c0.1,2,0.7,3.6,1.8,4.8s2.6,1.8,4.4,1.8
	c2.9,0,5-1.3,6.5-4l2.7,1.4c-2,3.8-5,5.6-9.2,5.6c-2.9,0-5.2-1-7-2.9s-2.7-4.5-2.7-7.4C358.8,230.9,359.7,228.4,361.5,226.4z
	 M374.5,231.5c-0.6-3.2-2.7-5-6-5c-3.1,0-5.3,1.9-6,5H374.5z"/>
<path d="M384.7,223.7h3.4v13.3c0,2.8,1.2,4.1,3.7,4.1c1.7,0,3-0.8,4.2-2.5s1.7-3.9,1.7-6.8v-8.1h3.4v20.2h-3.4v-3.7
	c-0.7,1.2-1.7,2.2-2.9,2.9c-1.2,0.7-2.5,1.1-3.9,1.1c-4.1,0-6.2-2.4-6.2-6.4V223.7z"/>
<path d="M408,229.7h19.6v3H408V229.7z"/>
<path d="M435.2,219.3c2.2-2.5,4.9-3.7,8.3-3.7c2.6,0,4.8,0.8,6.5,2.3s2.9,3.6,3.5,6.2l-3.3,1c-1.3-4.2-3.3-6.2-6.7-6.2
	c-2.5,0-4.4,0.9-5.8,2.7c-1.4,1.8-2.1,4.6-2.1,8.3c0,3.7,0.7,6.4,2.1,8.2s3.3,2.7,5.8,2.7c3.8,0,5.9-2.6,6.3-7.7h-6.3v-3.4h9.9v14.1
	h-2.9l-0.2-3.8c-0.6,1.3-1.6,2.3-2.8,3c-1.3,0.7-2.7,1-4.2,1c-3.2,0-5.9-1.2-8.1-3.7c-2.2-2.5-3.2-6-3.2-10.6
	C431.9,225.3,433,221.7,435.2,219.3z"/>
<path d="M457.4,215.9h8.9v20.4c0,3.3,1.4,4.9,4.2,4.9c2.6,0,4.2-1.6,4.7-4.9l3,0.6c-0.7,4.8-3.5,7.3-7.7,7.3c-2.3,0-4.2-0.7-5.6-2.1
	c-1.3-1.4-2-3.3-2-5.8v-17.4h-5.6V215.9z"/>
<path d="M484.2,223.7h3.4v3.7c0.7-1.2,1.7-2.2,2.9-2.9c1.2-0.8,2.5-1.1,3.9-1.1c4.1,0,6.2,2.5,6.2,6.4v14h-3.4v-13.3
	c0-2.8-1.2-4.1-3.7-4.1c-1.7,0-3.1,0.8-4.2,2.5s-1.7,3.9-1.7,6.8v8.1h-3.4V223.7z"/>
<path d="M507.1,229.7h19.6v3h-19.6V229.7z"/>
<path d="M540,215.9h3.4l10,28h-3.7l-2.5-7.5h-11l-2.5,7.5h-3.6L540,215.9z M546,233.1l-4.3-12.6l-4.3,12.6H546z"/>
<path d="M561.4,237.2c0.9,2.5,2.8,4,5.5,4c1.2,0,2.2-0.3,3.1-0.8s1.2-1.3,1.2-2.3c0-0.8-0.4-1.4-1.2-1.8c-0.8-0.4-2.1-0.8-4-1.2
	c-2.1-0.4-3.7-1.1-4.8-1.9c-1.1-0.8-1.7-2.1-1.7-3.9c0-1.8,0.7-3.2,2-4.2s2.9-1.6,4.9-1.6c3.3,0,5.8,1.5,7.4,4.4l-2.7,1.9
	c-1.2-2.1-2.8-3.2-4.8-3.2c-1,0-1.8,0.2-2.5,0.7s-1,1.1-1,2c0,1.6,1.5,2.5,4.7,3.1c0.9,0.2,1.6,0.4,2.2,0.5c0.6,0.2,1.2,0.4,1.9,0.7
	s1.2,0.6,1.6,1c0.8,0.7,1.5,1.9,1.5,3.3c0,2-0.7,3.6-2.2,4.7s-3.3,1.7-5.5,1.7c-2.1,0-3.9-0.5-5.5-1.5c-1.6-1-2.7-2.5-3.3-4.3
	L561.4,237.2z"/>
<path d="M583,223.7h3.4v2.7c0.6-0.9,1.5-1.6,2.6-2.1s2.3-0.9,3.6-0.9c2.9,0,5.2,1,6.8,2.9c1.6,1.9,2.5,4.4,2.5,7.6s-0.8,5.7-2.4,7.6
	s-3.9,2.8-6.8,2.8c-1.3,0-2.5-0.3-3.6-0.8s-1.9-1.2-2.5-2.1v10.7H583V223.7z M586.1,233.8c0,2.2,0.5,4,1.6,5.3c1.1,1.3,2.6,2,4.5,2
	s3.4-0.7,4.5-2c1.1-1.4,1.6-3.1,1.6-5.3s-0.5-4-1.6-5.3c-1.1-1.4-2.6-2.1-4.5-2.1s-3.4,0.7-4.5,2.1
	C586.7,229.9,586.1,231.6,586.1,233.8z"/>
<path d="M606.2,229.7h19.6v3h-19.6V229.7z"/>
<path d="M632.3,240.9h6.8v-21.9h-6.8v-3h17v3h-6.8v21.9h6.8v3h-17V240.9z"/>
<path d="M655.7,215.9h8.9v20.4c0,3.3,1.4,4.9,4.2,4.9c2.6,0,4.2-1.6,4.7-4.9l3,0.6c-0.7,4.8-3.5,7.3-7.7,7.3c-2.3,0-4.2-0.7-5.6-2.1
	c-1.3-1.4-2-3.3-2-5.8v-17.4h-5.6V215.9z"/>
<path d="M683.7,226.4c1.7-2,4.1-3,7-3c3,0,5.4,0.9,7,2.8c1.7,1.9,2.5,4.2,2.5,6.9v1.4h-15.8c0.1,2,0.7,3.6,1.8,4.8s2.6,1.8,4.4,1.8
	c2.9,0,5-1.3,6.5-4l2.7,1.4c-2,3.8-5,5.6-9.2,5.6c-2.9,0-5.2-1-7-2.9s-2.7-4.5-2.7-7.4C681,230.9,681.9,228.4,683.7,226.4z
	 M696.7,231.5c-0.6-3.2-2.7-5-6-5c-3.1,0-5.3,1.9-6,5H696.7z"/>
<path d="M705.4,229.7H725v3h-19.6V229.7z"/>
<path d="M730.2,215.9h3.8l6,15.5l6-15.5h3.8v28h-3.5v-20.5l-4.9,12.5h-2.6l-4.9-12.5v20.5h-3.5V215.9z"/>
<path d="M758,226.4c1.7-2,4.1-3,7-3c3,0,5.4,0.9,7,2.8c1.7,1.9,2.5,4.2,2.5,6.9v1.4h-15.8c0.1,2,0.7,3.6,1.8,4.8s2.6,1.8,4.4,1.8
	c2.9,0,5-1.3,6.5-4l2.7,1.4c-2,3.8-5,5.6-9.2,5.6c-2.9,0-5.2-1-7-2.9s-2.7-4.5-2.7-7.4C755.4,230.9,756.3,228.4,758,226.4z
	 M771,231.5c-0.6-3.2-2.7-5-6-5c-3.1,0-5.3,1.9-6,5H771z"/>
<path d="M779.8,223.7h5.4v-6l3.4-2.1v8.2h9.8v3h-9.8v10.3c0,2.7,1.2,4.1,3.5,4.1c1.8,0,3.4-0.8,5-2.4l1.2,2.8
	c-1.7,1.7-3.8,2.6-6.2,2.6c-4.4,0-6.8-2.4-6.8-7v-10.4h-5.4V223.7z"/>
<path d="M804.5,229.7h19.6v3h-19.6V229.7z"/>
<path d="M832.4,234.6c1.1,4.2,3.5,6.2,7.1,6.2c3.5,0,5.8-1.8,5.8-5.1c0-1.2-0.4-2-1-2.5c-0.3-0.3-0.7-0.5-1.3-0.8
	c-0.6-0.3-1.2-0.5-1.7-0.6c-0.5-0.2-1.3-0.4-2.3-0.6s-1.8-0.4-2.4-0.6c-0.6-0.2-1.3-0.5-2.1-0.9s-1.4-0.9-1.9-1.4
	c-0.9-1-1.7-2.8-1.7-4.9c0-2.3,0.8-4.2,2.3-5.6c1.5-1.5,3.6-2.2,6.3-2.2c2.3,0,4.1,0.6,5.6,1.7s2.5,2.6,3.2,4.3l-3.1,1.6
	c-1.2-2.8-3.1-4.2-5.7-4.2c-3.1,0-5,1.6-5,4.3c0,1.3,0.5,2.3,1.5,2.9s2.7,1.2,4.9,1.8c1,0.3,1.9,0.5,2.5,0.7s1.3,0.5,2.1,0.9
	s1.4,0.8,1.8,1.3c0.9,0.9,1.5,2.5,1.5,4.3c0,2.9-0.8,5.2-2.5,6.7c-1.7,1.5-3.9,2.2-6.8,2.2c-2.7,0-5-0.7-6.8-2.1s-3.1-3.5-3.6-6.2
	L832.4,234.6z"/>
<path d="M857.2,226.4c1.7-2,4.1-3,7-3c3,0,5.4,0.9,7,2.8c1.7,1.9,2.5,4.2,2.5,6.9v1.4H858c0.1,2,0.7,3.6,1.8,4.8s2.6,1.8,4.4,1.8
	c2.9,0,5-1.3,6.5-4l2.7,1.4c-2,3.8-5,5.6-9.2,5.6c-2.9,0-5.2-1-7-2.9s-2.7-4.5-2.7-7.4C854.5,230.9,855.4,228.4,857.2,226.4z
	 M870.2,231.5c-0.6-3.2-2.7-5-6-5c-3.1,0-5.3,1.9-6,5H870.2z"/>
<path d="M881.2,223.7h3.4v3.7c1.7-2.7,4.2-4,7.4-4c4,0,6.4,2.4,6.6,6.7h-3.4c-0.3-2.4-1.6-3.7-3.9-3.7c-1.9,0-3.5,0.9-4.8,2.7
	c-1.3,1.8-2,4.3-2,7.5v7.3h-3.4V223.7z"/>
<path d="M903.7,229.7h19.6v3h-19.6V229.7z"/>
<path d="M936.6,215.9h3.4l10,28h-3.7l-2.5-7.5h-11l-2.5,7.5h-3.6L936.6,215.9z M942.6,233.1l-4.3-12.6l-4.3,12.6H942.6z"/>
<path d="M955.6,223.7h3.4v3.7c1.7-2.7,4.2-4,7.4-4c4,0,6.4,2.4,6.6,6.7h-3.4c-0.3-2.4-1.6-3.7-3.9-3.7c-1.9,0-3.5,0.9-4.8,2.7
	c-1.3,1.8-2,4.3-2,7.5v7.3h-3.4V223.7z"/>
<path d="M980.8,241.4c-1-0.7-1.4-1.8-1.4-3.1c0-1.8,1.1-3.3,2.9-4c-0.8-1.1-1.2-2.5-1.2-4.1c0-2.1,0.7-3.7,2-4.9s3-1.9,5.1-1.9
	c1.4,0,2.8,0.4,4,1.1l4.2-2.2l1.5,2.8l-3.4,1.8c0.6,1,0.8,2.1,0.8,3.4c0,2.1-0.7,3.7-2,4.9c-1.3,1.2-3,1.8-5.1,1.8
	c-1.4,0-2.6-0.3-3.7-0.8c-1.2,0.5-1.8,1.2-1.8,2.1c0,1.1,0.9,1.7,2.8,1.7h5.2c4.3,0,6.8,2,6.8,5.6c0,2.3-0.9,4.1-2.8,5.2
	s-4.1,1.7-6.7,1.7c-2.9,0-5.2-0.6-6.9-1.7s-2.5-2.8-2.5-4.9C978.7,243.9,979.4,242.5,980.8,241.4z M983.7,248.4c1.1,0.7,2.5,1,4.3,1
	c3.8,0,6-1.4,6-3.7c0-2-1.1-3-3.4-3h-4.7c-0.8,0-1.5-0.1-2.1-0.2c-1.2,0.6-1.7,1.6-1.7,3C982.1,246.8,982.6,247.7,983.7,248.4z
	 M984.4,230.2c0,1.2,0.4,2.1,1.1,2.8s1.6,1,2.7,1s2-0.3,2.7-1c0.7-0.7,1.1-1.6,1.1-2.9s-0.4-2.2-1.1-2.9c-0.7-0.7-1.6-1-2.7-1
	s-2,0.4-2.7,1S984.4,229,984.4,230.2z"/>
<path d="M1002.8,229.7h19.6v3h-19.6V229.7z"/>
<g>
	<path d="M1030,219.3c2.2-2.5,4.9-3.7,8.3-3.7c2.6,0,4.8,0.8,6.5,2.3s2.9,3.6,3.5,6.2l-3.3,1c-1.3-4.2-3.3-6.2-6.7-6.2
		c-2.5,0-4.4,0.9-5.8,2.7c-1.4,1.8-2.1,4.6-2.1,8.3c0,3.7,0.7,6.4,2.1,8.2s3.3,2.7,5.8,2.7c3.8,0,5.9-2.6,6.3-7.7h-6.3v-3.4h9.9
		v14.1h-2.9l-0.2-3.8c-0.6,1.3-1.6,2.3-2.8,3c-1.3,0.7-2.7,1-4.2,1c-3.2,0-5.9-1.2-8.1-3.7c-2.2-2.5-3.2-6-3.2-10.6
		C1026.7,225.3,1027.8,221.7,1030,219.3z"/>
	<path d="M1052.3,215.9h8.9v20.4c0,3.3,1.4,4.9,4.2,4.9c2.6,0,4.2-1.6,4.7-4.9l3,0.6c-0.7,4.8-3.5,7.3-7.7,7.3
		c-2.3,0-4.2-0.7-5.6-2.1c-1.3-1.4-2-3.3-2-5.8v-17.4h-5.6V215.9z"/>
	<path d="M1079.1,223.7h3.4v3.7c0.7-1.2,1.7-2.2,2.9-2.9c1.2-0.8,2.5-1.1,3.9-1.1c4.1,0,6.2,2.5,6.2,6.4v14h-3.4v-13.3
		c0-2.8-1.2-4.1-3.7-4.1c-1.7,0-3.1,0.8-4.2,2.5s-1.7,3.9-1.7,6.8v8.1h-3.4V223.7z"/>
</g>
<path d="M1101.9,229.7h19.6v3h-19.6V229.7z"/>
<path d="M137.7,295.3c2.2-2.5,4.9-3.7,8.3-3.7c2.6,0,4.8,0.8,6.5,2.3s2.9,3.6,3.5,6.2l-3.3,1c-1.3-4.2-3.3-6.2-6.7-6.2
	c-2.5,0-4.4,0.9-5.8,2.7c-1.4,1.8-2.1,4.6-2.1,8.3c0,3.7,0.7,6.4,2.1,8.2s3.3,2.7,5.8,2.7c3.8,0,5.9-2.6,6.3-7.7H146v-3.4h9.9v14.1
	H153l-0.2-3.8c-0.6,1.3-1.6,2.3-2.8,3c-1.3,0.7-2.7,1-4.2,1c-3.2,0-5.9-1.2-8.1-3.7c-2.2-2.5-3.2-6-3.2-10.6
	C134.5,301.3,135.6,297.7,137.7,295.3z"/>
<path d="M160,291.9h8.9v20.4c0,3.3,1.4,4.9,4.2,4.9c2.6,0,4.2-1.6,4.7-4.9l3,0.6c-0.7,4.8-3.5,7.3-7.7,7.3c-2.3,0-4.2-0.7-5.6-2.1
	c-1.3-1.4-2-3.3-2-5.8v-17.4H160V291.9z"/>
<path d="M186.8,299.7h3.4v3.7c0.7-1.2,1.7-2.2,2.9-2.9c1.2-0.8,2.5-1.1,3.9-1.1c4.1,0,6.2,2.5,6.2,6.4v14h-3.4v-13.3
	c0-2.8-1.2-4.1-3.7-4.1c-1.7,0-3.1,0.8-4.2,2.5s-1.7,3.9-1.7,6.8v8.1h-3.4V299.7z"/>
<path d="M209.7,305.7h19.6v3h-19.6V305.7z"/>
<path d="M236.9,295.3c2.2-2.5,4.9-3.7,8.3-3.7c2.6,0,4.8,0.8,6.5,2.3s2.9,3.6,3.5,6.2l-3.3,1c-1.3-4.2-3.3-6.2-6.7-6.2
	c-2.5,0-4.4,0.9-5.8,2.7c-1.4,1.8-2.1,4.6-2.1,8.3c0,3.7,0.7,6.4,2.1,8.2s3.3,2.7,5.8,2.7c3.8,0,5.9-2.6,6.3-7.7h-6.3v-3.4h9.9v14.1
	h-2.9l-0.2-3.8c-0.6,1.3-1.6,2.3-2.8,3c-1.3,0.7-2.7,1-4.2,1c-3.2,0-5.9-1.2-8.1-3.7c-2.2-2.5-3.2-6-3.2-10.6
	C233.6,301.3,234.7,297.7,236.9,295.3z"/>
<path d="M259.1,291.9h8.9v20.4c0,3.3,1.4,4.9,4.2,4.9c2.6,0,4.2-1.6,4.7-4.9l3,0.6c-0.7,4.8-3.5,7.3-7.7,7.3c-2.3,0-4.2-0.7-5.6-2.1
	c-1.3-1.4-2-3.3-2-5.8v-17.4h-5.6V291.9z"/>
<path d="M288.1,299.7l6.8,14.8l6-14.8h3.7l-12,28.3h-3.4l3.9-9.5l-8.7-18.8H288.1z"/>
<path d="M308.8,305.7h19.6v3h-19.6V305.7z"/>
<path d="M336,295.3c2.2-2.5,4.9-3.7,8.3-3.7c2.6,0,4.8,0.8,6.5,2.3s2.9,3.6,3.5,6.2l-3.3,1c-1.3-4.2-3.3-6.2-6.7-6.2
	c-2.5,0-4.4,0.9-5.8,2.7c-1.4,1.8-2.1,4.6-2.1,8.3c0,3.7,0.7,6.4,2.1,8.2s3.3,2.7,5.8,2.7c3.8,0,5.9-2.6,6.3-7.7h-6.3v-3.4h9.9v14.1
	h-2.9l-0.2-3.8c-0.6,1.3-1.6,2.3-2.8,3c-1.3,0.7-2.7,1-4.2,1c-3.2,0-5.9-1.2-8.1-3.7c-2.2-2.5-3.2-6-3.2-10.6
	C332.8,301.3,333.9,297.7,336,295.3z"/>
<path d="M358.3,291.9h8.9v20.4c0,3.3,1.4,4.9,4.2,4.9c2.6,0,4.2-1.6,4.7-4.9l3,0.6c-0.7,4.8-3.5,7.3-7.7,7.3c-2.3,0-4.2-0.7-5.6-2.1
	c-1.3-1.4-2-3.3-2-5.8v-17.4h-5.6V291.9z"/>
<path d="M384.7,299.7h3.4v13.3c0,2.8,1.2,4.1,3.7,4.1c1.7,0,3-0.8,4.2-2.5s1.7-3.9,1.7-6.8v-8.1h3.4v20.2h-3.4v-3.7
	c-0.7,1.2-1.7,2.2-2.9,2.9c-1.2,0.7-2.5,1.1-3.9,1.1c-4.1,0-6.2-2.4-6.2-6.4V299.7z"/>
<path d="M408,305.7h19.6v3H408V305.7z"/>
<path d="M435.8,310.6c1.1,4.2,3.5,6.2,7.1,6.2c3.5,0,5.8-1.8,5.8-5.1c0-1.2-0.4-2-1-2.5c-0.3-0.3-0.7-0.5-1.3-0.8
	c-0.6-0.3-1.2-0.5-1.7-0.6c-0.5-0.2-1.3-0.4-2.3-0.6s-1.8-0.4-2.4-0.6c-0.6-0.2-1.3-0.5-2.1-0.9s-1.4-0.9-1.9-1.4
	c-0.9-1-1.7-2.8-1.7-4.9c0-2.3,0.8-4.2,2.3-5.6c1.5-1.5,3.6-2.2,6.3-2.2c2.3,0,4.1,0.6,5.6,1.7s2.5,2.6,3.2,4.3l-3.1,1.6
	c-1.2-2.8-3.1-4.2-5.7-4.2c-3.1,0-5,1.6-5,4.3c0,1.3,0.5,2.3,1.5,2.9s2.7,1.2,4.9,1.8c1,0.3,1.9,0.5,2.5,0.7s1.3,0.5,2.1,0.9
	s1.4,0.8,1.8,1.3c0.9,0.9,1.5,2.5,1.5,4.3c0,2.9-0.8,5.2-2.5,6.7c-1.7,1.5-3.9,2.2-6.8,2.2c-2.7,0-5-0.7-6.8-2.1s-3.1-3.5-3.6-6.2
	L435.8,310.6z"/>
<path d="M460.6,302.4c1.7-2,4.1-3,7-3c3,0,5.4,0.9,7,2.8c1.7,1.9,2.5,4.2,2.5,6.9v1.4h-15.8c0.1,2,0.7,3.6,1.8,4.8s2.6,1.8,4.4,1.8
	c2.9,0,5-1.3,6.5-4l2.7,1.4c-2,3.8-5,5.6-9.2,5.6c-2.9,0-5.2-1-7-2.9s-2.7-4.5-2.7-7.4C458,306.9,458.9,304.4,460.6,302.4z
	 M473.6,307.5c-0.6-3.2-2.7-5-6-5c-3.1,0-5.3,1.9-6,5H473.6z"/>
<path d="M484.6,299.7h3.4v3.7c1.7-2.7,4.2-4,7.4-4c4,0,6.4,2.4,6.6,6.7h-3.4c-0.3-2.4-1.6-3.7-3.9-3.7c-1.9,0-3.5,0.9-4.8,2.7
	c-1.3,1.8-2,4.3-2,7.5v7.3h-3.4V299.7z"/>
<path d="M507.1,305.7h19.6v3h-19.6V305.7z"/>
<path d="M540,291.9h3.4l10,28h-3.7l-2.5-7.5h-11l-2.5,7.5h-3.6L540,291.9z M546,309.1l-4.3-12.6l-4.3,12.6H546z"/>
<path d="M561.4,313.2c0.9,2.5,2.8,4,5.5,4c1.2,0,2.2-0.3,3.1-0.8s1.2-1.3,1.2-2.3c0-0.8-0.4-1.4-1.2-1.8c-0.8-0.4-2.1-0.8-4-1.2
	c-2.1-0.4-3.7-1.1-4.8-1.9c-1.1-0.8-1.7-2.1-1.7-3.9c0-1.8,0.7-3.2,2-4.2s2.9-1.6,4.9-1.6c3.3,0,5.8,1.5,7.4,4.4l-2.7,1.9
	c-1.2-2.1-2.8-3.2-4.8-3.2c-1,0-1.8,0.2-2.5,0.7s-1,1.1-1,2c0,1.6,1.5,2.5,4.7,3.1c0.9,0.2,1.6,0.4,2.2,0.5c0.6,0.2,1.2,0.4,1.9,0.7
	s1.2,0.6,1.6,1c0.8,0.7,1.5,1.9,1.5,3.3c0,2-0.7,3.6-2.2,4.7s-3.3,1.7-5.5,1.7c-2.1,0-3.9-0.5-5.5-1.5c-1.6-1-2.7-2.5-3.3-4.3
	L561.4,313.2z"/>
<path d="M583.4,299.7h3.4v3.7c0.7-1.2,1.7-2.2,2.9-2.9c1.2-0.8,2.5-1.1,3.9-1.1c4.1,0,6.2,2.5,6.2,6.4v14h-3.4v-13.3
	c0-2.8-1.2-4.1-3.7-4.1c-1.7,0-3.1,0.8-4.2,2.5s-1.7,3.9-1.7,6.8v8.1h-3.4V299.7z"/>
<path d="M606.2,305.7h19.6v3h-19.6V305.7z"/>
<path d="M633.4,295.3c2.2-2.5,4.9-3.7,8.3-3.7c2.6,0,4.8,0.8,6.5,2.3s2.9,3.6,3.5,6.2l-3.3,1c-1.3-4.2-3.3-6.2-6.7-6.2
	c-2.5,0-4.4,0.9-5.8,2.7c-1.4,1.8-2.1,4.6-2.1,8.3c0,3.7,0.7,6.4,2.1,8.2s3.3,2.7,5.8,2.7c3.8,0,5.9-2.6,6.3-7.7h-6.3v-3.4h9.9v14.1
	h-2.9l-0.2-3.8c-0.6,1.3-1.6,2.3-2.8,3c-1.3,0.7-2.7,1-4.2,1c-3.2,0-5.9-1.2-8.1-3.7c-2.2-2.5-3.2-6-3.2-10.6
	C630.2,301.3,631.3,297.7,633.4,295.3z"/>
<path d="M655.7,291.9h8.9v20.4c0,3.3,1.4,4.9,4.2,4.9c2.6,0,4.2-1.6,4.7-4.9l3,0.6c-0.7,4.8-3.5,7.3-7.7,7.3c-2.3,0-4.2-0.7-5.6-2.1
	c-1.3-1.4-2-3.3-2-5.8v-17.4h-5.6V291.9z"/>
<path d="M682.5,299.7h3.4v3.7c0.7-1.2,1.7-2.2,2.9-2.9c1.2-0.8,2.5-1.1,3.9-1.1c4.1,0,6.2,2.5,6.2,6.4v14h-3.4v-13.3
	c0-2.8-1.2-4.1-3.7-4.1c-1.7,0-3.1,0.8-4.2,2.5s-1.7,3.9-1.7,6.8v8.1h-3.4V299.7z"/>
<path d="M705.4,305.7H725v3h-19.6V305.7z"/>
<path d="M732.6,295.3c2.2-2.5,4.9-3.7,8.3-3.7c2.6,0,4.8,0.8,6.5,2.3s2.9,3.6,3.5,6.2l-3.3,1c-1.3-4.2-3.3-6.2-6.7-6.2
	c-2.5,0-4.4,0.9-5.8,2.7c-1.4,1.8-2.1,4.6-2.1,8.3c0,3.7,0.7,6.4,2.1,8.2s3.3,2.7,5.8,2.7c3.8,0,5.9-2.6,6.3-7.7h-6.3v-3.4h9.9v14.1
	h-2.9l-0.2-3.8c-0.6,1.3-1.6,2.3-2.8,3c-1.3,0.7-2.7,1-4.2,1c-3.2,0-5.9-1.2-8.1-3.7c-2.2-2.5-3.2-6-3.2-10.6
	C729.3,301.3,730.4,297.7,732.6,295.3z"/>
<path d="M754.8,291.9h8.9v20.4c0,3.3,1.4,4.9,4.2,4.9c2.6,0,4.2-1.6,4.7-4.9l3,0.6c-0.7,4.8-3.5,7.3-7.7,7.3c-2.3,0-4.2-0.7-5.6-2.1
	c-1.3-1.4-2-3.3-2-5.8v-17.4h-5.6V291.9z"/>
<path d="M781.3,299.7h3.4v13.3c0,2.8,1.2,4.1,3.7,4.1c1.7,0,3-0.8,4.2-2.5s1.7-3.9,1.7-6.8v-8.1h3.4v20.2h-3.4v-3.7
	c-0.7,1.2-1.7,2.2-2.9,2.9c-1.2,0.7-2.5,1.1-3.9,1.1c-4.1,0-6.2-2.4-6.2-6.4V299.7z"/>
<path d="M804.5,305.7h19.6v3h-19.6V305.7z"/>
<path d="M837.4,291.9h3.4l10,28h-3.7l-2.5-7.5h-11l-2.5,7.5h-3.6L837.4,291.9z M843.4,309.1l-4.3-12.6l-4.3,12.6H843.4z"/>
<path d="M856.4,299.7h3.4v3.7c1.7-2.7,4.2-4,7.4-4c4,0,6.4,2.4,6.6,6.7h-3.4c-0.3-2.4-1.6-3.7-3.9-3.7c-1.9,0-3.5,0.9-4.8,2.7
	c-1.3,1.8-2,4.3-2,7.5v7.3h-3.4V299.7z"/>
<path d="M881.7,317.4c-1-0.7-1.4-1.8-1.4-3.1c0-1.8,1.1-3.3,2.9-4c-0.8-1.1-1.2-2.5-1.2-4.1c0-2.1,0.7-3.7,2-4.9s3-1.9,5.1-1.9
	c1.4,0,2.8,0.4,4,1.1l4.2-2.2l1.5,2.8l-3.4,1.8c0.6,1,0.8,2.1,0.8,3.4c0,2.1-0.7,3.7-2,4.9c-1.3,1.2-3,1.8-5.1,1.8
	c-1.4,0-2.6-0.3-3.7-0.8c-1.2,0.5-1.8,1.2-1.8,2.1c0,1.1,0.9,1.7,2.8,1.7h5.2c4.3,0,6.8,2,6.8,5.6c0,2.3-0.9,4.1-2.8,5.2
	s-4.1,1.7-6.7,1.7c-2.9,0-5.2-0.6-6.9-1.7s-2.5-2.8-2.5-4.9C879.6,319.9,880.3,318.5,881.7,317.4z M884.6,324.4c1.1,0.7,2.5,1,4.3,1
	c3.8,0,6-1.4,6-3.7c0-2-1.1-3-3.4-3h-4.7c-0.8,0-1.5-0.1-2.1-0.2c-1.2,0.6-1.7,1.6-1.7,3C883,322.8,883.5,323.7,884.6,324.4z
	 M885.2,306.2c0,1.2,0.4,2.1,1.1,2.8s1.6,1,2.7,1s2-0.3,2.7-1c0.7-0.7,1.1-1.6,1.1-2.9s-0.4-2.2-1.1-2.9c-0.7-0.7-1.6-1-2.7-1
	s-2,0.4-2.7,1S885.2,305,885.2,306.2z"/>
<path d="M903.7,305.7h19.6v3h-19.6V305.7z"/>
<path d="M930.9,295.3c2.2-2.5,4.9-3.7,8.3-3.7c2.6,0,4.8,0.8,6.5,2.3s2.9,3.6,3.5,6.2l-3.3,1c-1.3-4.2-3.3-6.2-6.7-6.2
	c-2.5,0-4.4,0.9-5.8,2.7c-1.4,1.8-2.1,4.6-2.1,8.3c0,3.7,0.7,6.4,2.1,8.2s3.3,2.7,5.8,2.7c3.8,0,5.9-2.6,6.3-7.7h-6.3v-3.4h9.9v14.1
	h-2.9l-0.2-3.8c-0.6,1.3-1.6,2.3-2.8,3c-1.3,0.7-2.7,1-4.2,1c-3.2,0-5.9-1.2-8.1-3.7c-2.2-2.5-3.2-6-3.2-10.6
	C927.6,301.3,928.7,297.7,930.9,295.3z"/>
<path d="M953.1,291.9h8.9v20.4c0,3.3,1.4,4.9,4.2,4.9c2.6,0,4.2-1.6,4.7-4.9l3,0.6c-0.7,4.8-3.5,7.3-7.7,7.3c-2.3,0-4.2-0.7-5.6-2.1
	c-1.3-1.4-2-3.3-2-5.8v-17.4h-5.6V291.9z"/>
<path d="M982.1,299.7l6.8,14.8l6-14.8h3.7l-12,28.3h-3.4l3.9-9.5l-8.7-18.8H982.1z"/>
<path d="M1002.8,305.7h19.6v3h-19.6V305.7z"/>
<path d="M1035.7,291.9h3.4l10,28h-3.7l-2.5-7.5h-11l-2.5,7.5h-3.6L1035.7,291.9z M1041.7,309.1l-4.3-12.6l-4.3,12.6H1041.7z"/>
<path d="M1052.3,291.9h8.9v20.4c0,3.3,1.4,4.9,4.2,4.9c2.6,0,4.2-1.6,4.7-4.9l3,0.6c-0.7,4.8-3.5,7.3-7.7,7.3
	c-2.3,0-4.2-0.7-5.6-2.1c-1.3-1.4-2-3.3-2-5.8v-17.4h-5.6V291.9z"/>
<path d="M1081.4,309.2c1.6-1.1,3.8-1.7,6.7-1.7h4.1v-0.9c0-1.5-0.4-2.5-1.3-3.2c-0.9-0.6-2-1-3.3-1c-1.2,0-2.1,0.3-3,1
	s-1.4,1.5-1.8,2.5l-3-0.8c0.4-1.7,1.4-3.1,2.8-4.1c1.4-1,3.1-1.5,4.9-1.5c2.5,0,4.4,0.6,5.8,1.9c1.4,1.2,2.1,3.2,2.1,5.9v12.7h-2.7
	l-0.5-2.8c-0.6,0.9-1.6,1.7-2.9,2.3c-1.3,0.6-2.7,0.9-4.2,0.9c-1.8,0-3.3-0.5-4.5-1.6c-1.2-1.1-1.8-2.6-1.8-4.6
	C1079,311.9,1079.8,310.3,1081.4,309.2z M1085.8,317.2c1.6,0,3.1-0.5,4.4-1.5s2-2.6,2-4.6v-0.6h-4.4c-3.4,0-5.4,1.4-5.4,3.7
	C1082.4,316,1083.7,317.2,1085.8,317.2z"/>
<path d="M1101.9,305.7h19.6v3h-19.6V305.7z"/>
<path d="M143.4,367.9h3.4l10,28h-3.7l-2.5-7.5h-11l-2.5,7.5h-3.6L143.4,367.9z M149.4,385.1l-4.3-12.6l-4.3,12.6H149.4z"/>
<path d="M162.4,375.7h3.4v3.7c1.7-2.7,4.2-4,7.4-4c4,0,6.4,2.4,6.6,6.7h-3.4c-0.3-2.4-1.6-3.7-3.9-3.7c-1.9,0-3.5,0.9-4.8,2.7
	c-1.3,1.8-2,4.3-2,7.5v7.3h-3.4V375.7z"/>
<path d="M187.7,393.4c-1-0.7-1.4-1.8-1.4-3.1c0-1.8,1.1-3.3,2.9-4c-0.8-1.1-1.2-2.5-1.2-4.1c0-2.1,0.7-3.7,2-4.9s3-1.9,5.1-1.9
	c1.4,0,2.8,0.4,4,1.1l4.2-2.2l1.5,2.8l-3.4,1.8c0.6,1,0.8,2.1,0.8,3.4c0,2.1-0.7,3.7-2,4.9c-1.3,1.2-3,1.8-5.1,1.8
	c-1.4,0-2.6-0.3-3.7-0.8c-1.2,0.5-1.8,1.2-1.8,2.1c0,1.1,0.9,1.7,2.8,1.7h5.2c4.3,0,6.8,2,6.8,5.6c0,2.3-0.9,4.1-2.8,5.2
	s-4.1,1.7-6.7,1.7c-2.9,0-5.2-0.6-6.9-1.7s-2.5-2.8-2.5-4.9C185.6,395.9,186.3,394.5,187.7,393.4z M190.6,400.4c1.1,0.7,2.5,1,4.3,1
	c3.8,0,6-1.4,6-3.7c0-2-1.1-3-3.4-3h-4.7c-0.8,0-1.5-0.1-2.1-0.2c-1.2,0.6-1.7,1.6-1.7,3C189,398.8,189.5,399.7,190.6,400.4z
	 M191.3,382.2c0,1.2,0.4,2.1,1.1,2.8s1.6,1,2.7,1s2-0.3,2.7-1c0.7-0.7,1.1-1.6,1.1-2.9s-0.4-2.2-1.1-2.9c-0.7-0.7-1.6-1-2.7-1
	s-2,0.4-2.7,1S191.3,381,191.3,382.2z"/>
<path d="M209.7,381.7h19.6v3h-19.6V381.7z"/>
<path d="M242.6,367.9h3.4l10,28h-3.7l-2.5-7.5h-11l-2.5,7.5h-3.6L242.6,367.9z M248.6,385.1l-4.3-12.6l-4.3,12.6H248.6z"/>
<path d="M259.1,367.9h8.9v20.4c0,3.3,1.4,4.9,4.2,4.9c2.6,0,4.2-1.6,4.7-4.9l3,0.6c-0.7,4.8-3.5,7.3-7.7,7.3c-2.3,0-4.2-0.7-5.6-2.1
	c-1.3-1.4-2-3.3-2-5.8v-17.4h-5.6V367.9z"/>
<path d="M288.3,385.2c1.6-1.1,3.8-1.7,6.7-1.7h4.1v-0.9c0-1.5-0.4-2.5-1.3-3.2c-0.9-0.6-2-1-3.3-1c-1.2,0-2.1,0.3-3,1
	s-1.4,1.5-1.8,2.5l-3-0.8c0.4-1.7,1.4-3.1,2.8-4.1c1.4-1,3.1-1.5,4.9-1.5c2.5,0,4.4,0.6,5.8,1.9c1.4,1.2,2.1,3.2,2.1,5.9v12.7h-2.7
	l-0.5-2.8c-0.6,0.9-1.6,1.7-2.9,2.3c-1.3,0.6-2.7,0.9-4.2,0.9c-1.8,0-3.3-0.5-4.5-1.6c-1.2-1.1-1.8-2.6-1.8-4.6
	C285.9,387.9,286.7,386.3,288.3,385.2z M292.6,393.2c1.6,0,3.1-0.5,4.4-1.5s2-2.6,2-4.6v-0.6h-4.4c-3.4,0-5.4,1.4-5.4,3.7
	C289.3,392,290.6,393.2,292.6,393.2z"/>
<path d="M308.8,381.7h19.6v3h-19.6V381.7z"/>
<path d="M341.7,367.9h3.4l10,28h-3.7l-2.5-7.5h-11l-2.5,7.5h-3.6L341.7,367.9z M347.7,385.1l-4.3-12.6l-4.3,12.6H347.7z"/>
<path d="M360.7,375.7h3.4v3.7c1.7-2.7,4.2-4,7.4-4c4,0,6.4,2.4,6.6,6.7h-3.4c-0.3-2.4-1.6-3.7-3.9-3.7c-1.9,0-3.5,0.9-4.8,2.7
	c-1.3,1.8-2,4.3-2,7.5v7.3h-3.4V375.7z"/>
<path d="M386,393.4c-1-0.7-1.4-1.8-1.4-3.1c0-1.8,1.1-3.3,2.9-4c-0.8-1.1-1.2-2.5-1.2-4.1c0-2.1,0.7-3.7,2-4.9s3-1.9,5.1-1.9
	c1.4,0,2.8,0.4,4,1.1l4.2-2.2l1.5,2.8l-3.4,1.8c0.6,1,0.8,2.1,0.8,3.4c0,2.1-0.7,3.7-2,4.9c-1.3,1.2-3,1.8-5.1,1.8
	c-1.4,0-2.6-0.3-3.7-0.8c-1.2,0.5-1.8,1.2-1.8,2.1c0,1.1,0.9,1.7,2.8,1.7h5.2c4.3,0,6.8,2,6.8,5.6c0,2.3-0.9,4.1-2.8,5.2
	s-4.1,1.7-6.7,1.7c-2.9,0-5.2-0.6-6.9-1.7s-2.5-2.8-2.5-4.9C383.9,395.9,384.6,394.5,386,393.4z M388.9,400.4c1.1,0.7,2.5,1,4.3,1
	c3.8,0,6-1.4,6-3.7c0-2-1.1-3-3.4-3h-4.7c-0.8,0-1.5-0.1-2.1-0.2c-1.2,0.6-1.7,1.6-1.7,3C387.3,398.8,387.8,399.7,388.9,400.4z
	 M389.5,382.2c0,1.2,0.4,2.1,1.1,2.8s1.6,1,2.7,1s2-0.3,2.7-1c0.7-0.7,1.1-1.6,1.1-2.9s-0.4-2.2-1.1-2.9c-0.7-0.7-1.6-1-2.7-1
	s-2,0.4-2.7,1S389.5,381,389.5,382.2z"/>
<path d="M408,381.7h19.6v3H408V381.7z"/>
<path d="M435.5,367.9h3.5v24.6h14.3v3.4h-17.8V367.9z"/>
<path d="M460.6,378.4c1.7-2,4.1-3,7-3c3,0,5.4,0.9,7,2.8c1.7,1.9,2.5,4.2,2.5,6.9v1.4h-15.8c0.1,2,0.7,3.6,1.8,4.8s2.6,1.8,4.4,1.8
	c2.9,0,5-1.3,6.5-4l2.7,1.4c-2,3.8-5,5.6-9.2,5.6c-2.9,0-5.2-1-7-2.9s-2.7-4.5-2.7-7.4C458,382.9,458.9,380.4,460.6,378.4z
	 M473.6,383.5c-0.6-3.2-2.7-5-6-5c-3.1,0-5.3,1.9-6,5H473.6z"/>
<path d="M483.8,375.7h3.4v13.3c0,2.8,1.2,4.1,3.7,4.1c1.7,0,3-0.8,4.2-2.5s1.7-3.9,1.7-6.8v-8.1h3.4v20.2h-3.4v-3.7
	c-0.7,1.2-1.7,2.2-2.9,2.9c-1.2,0.7-2.5,1.1-3.9,1.1c-4.1,0-6.2-2.4-6.2-6.4V375.7z"/>
<path d="M507.1,381.7h19.6v3h-19.6V381.7z"/>
<path d="M532.1,367.9h3.8l11.7,21.6v-21.6h3.5v28h-3.8l-11.7-21.6v21.6h-3.5V367.9z"/>
<path d="M556.8,367.9h3.5v11.4h12.3v-11.4h3.5v28h-3.5v-13.2h-12.3v13.2h-3.5V367.9z"/>
<path d="M582.4,404.2l8.3-10.3c0.7-0.8,1.1-1.5,1.3-2.1c0.2-0.6,0.4-1.2,0.4-1.9c0-1-0.3-1.8-0.8-2.4c-0.6-0.7-1.4-1-2.5-1
	c-1,0-1.8,0.4-2.5,1.1c-0.7,0.7-1.1,1.6-1.2,2.8l-2.6-0.5c0.2-1.6,0.8-3,2-4.1c1.2-1.1,2.6-1.6,4.2-1.6c2,0,3.5,0.6,4.6,1.8
	c0.9,1,1.3,2.3,1.3,4c0,1.6-0.5,3.1-1.7,4.6l-6.8,8.5h8.8v2.4h-12.9V404.2z"/>
<polygon points="87.6,45.3 85.5,46.5 103.5,77.6 101.6,77.6 99.6,77.6 98.9,77.6 98.5,78.2 96.6,81.6 78.6,50.5 76.5,51.7 95.2,84 
	70.7,126.4 70.7,126.4 69.7,128.1 69.4,128.7 69.7,129.3 70.7,131.1 70.7,131.1 98.2,178.6 70.7,226.2 70.7,226.2 69.7,227.9 
	69.4,228.5 69.7,229.1 70.7,230.8 70.7,230.8 97.5,277.2 98.2,278.4 79.8,310.2 81.9,311.4 100.6,279 101,278.4 100.6,277.8 
	99.6,276 99.6,276 72.8,229.6 72.8,229.6 72.2,228.5 72.8,227.4 72.8,227.4 99.6,180.9 100.6,179.2 101,178.6 100.6,178 99.6,176.3 
	99.6,176.3 72.8,129.9 72.8,129.9 72.2,128.7 72.8,127.6 72.8,127.6 99.6,81.2 100.3,80 101.6,80 127.4,80 127.4,77.6 106.3,77.6 
	"/>
<rect x="71.3" y="207.5" transform="matrix(-0.5 0.866 -0.866 -0.5 322.0063 231.5677)" width="45.6" height="2.4"/>
<path d="M70.8,43.3c8,0,13-5.6,13-14.6c0-8.9-5-14.6-13-14.6c-8,0-13,5.6-13,14.6C57.8,37.7,62.8,43.3,70.8,43.3z M70.8,17.4
	c5.8,0,9.4,4.4,9.4,11.3c0,6.9-3.6,11.3-9.4,11.3c-5.8,0-9.4-4.4-9.4-11.3C61.4,21.8,65,17.4,70.8,17.4z"/>
<path d="M71.3,316.7c4,0,7.2,2.4,8.1,6.1H83c-0.9-5.6-5.6-9.4-11.7-9.4c-7.7,0-12.7,5.7-12.7,14.6c0,8.9,4.9,14.6,12.7,14.6
	c6.2,0,10.4-3.1,11.7-8.7h-3.6c-1,3.4-4,5.4-8.1,5.4c-5.6,0-9.1-4.4-9.1-11.3C62.2,321.2,65.8,316.7,71.3,316.7z"/>
<polygon points="33.2,326.1 17.7,326.1 17.7,313.9 14.2,313.9 14.2,342.1 17.7,342.1 17.7,329.3 33.2,329.3 33.2,342.1 36.7,342.1 
	36.7,313.9 33.2,313.9 "/>
<path d="M49.7,338.1L49.7,338.1c2.5-0.5,4-2.3,4-4.7c0-3-2.7-5.1-6.2-5.1c-3.7,0-6.2,2.1-6.5,5.5h2.4c0.2-2.1,1.7-3.4,4-3.4
	c2.5,0,3.8,1.3,3.8,3.3c0,2-1.6,3.5-3.9,3.5H45v2.1h2.5c2.8,0,4.6,1.4,4.6,3.8c0,2.1-1.9,3.5-4.5,3.5c-2.7,0-4.3-1.4-4.6-3.4h-2.4
	c0.2,3.3,2.8,5.6,6.9,5.6c3.9,0,7-2.4,7-5.8C54.6,340.2,52.7,338.3,49.7,338.1z"/>
<path class="st0" d="M981.4,497.6c-2.5,3.2-5.5,7.4-5.5,16.5c0,9,3.1,14.4,5.3,17.1h3c-1.8-3.1-4.8-8.2-4.8-17.1s3.2-14.5,4.9-16.4
	H981.4z"/>
<polygon class="st0" points="999.8,504.8 994.8,512.7 994.7,512.7 989.5,504.8 985.8,504.8 992.8,515.3 985.6,525.8 989.4,525.8 
	994.6,517.7 994.6,517.7 999.7,525.8 1003.5,525.8 996.5,515.1 1003.6,504.8 "/>
<path class="st0" d="M1019.2,520.6c-0.8,0-1.6-0.5-2.8-1.7c-1.5-1.5-2.8-2.1-4.3-2.1c-3.3,0-5.3,2.3-5.3,5.9h2.8
	c0.1-2.1,0.9-3.1,2.4-3.1c0.8,0,1.5,0.5,2.8,1.7c1.5,1.5,2.8,2.1,4.3,2.1c3.3,0,5.3-2.2,5.3-5.9h-2.8
	C1021.5,519.5,1020.7,520.6,1019.2,520.6z"/>
<path class="st0" d="M1019.2,512c-0.8,0-1.6-0.5-2.8-1.7c-1.5-1.5-2.8-2.1-4.3-2.1c-3.3,0-5.3,2.3-5.3,5.9h2.8
	c0.1-2.1,0.9-3.1,2.4-3.1c0.8,0,1.5,0.5,2.8,1.7c1.5,1.5,2.8,2.1,4.3,2.1c3.3,0,5.3-2.2,5.3-5.9h-2.8
	C1021.5,511,1020.7,512,1019.2,512z"/>
<polygon class="st0" points="1029.2,500.7 1044.4,500.7 1044.4,500.8 1031.6,525.8 1035.3,525.8 1047.9,500.9 1047.9,497.6 
	1029.2,497.6 "/>
<path class="st0" d="M1050.3,497.6c1.7,1.9,4.8,7.5,4.8,16.4s-3,14-4.8,17.1h3c2.2-2.7,5.3-8.1,5.3-17.1c0-9-3-13.3-5.5-16.5H1050.3
	z"/>
<g>
	<polygon points="666.5,367.9 666.5,369.1 666.5,524.7 666.5,525.9 667.7,525.9 677,525.9 677,523.5 668.9,523.5 668.9,370.3 
		677,370.3 677,367.9 667.7,367.9 	"/>
	<polygon points="888.2,367.9 888.2,370.3 896.3,370.3 896.3,523.5 888.2,523.5 888.2,525.9 897.5,525.9 898.7,525.9 898.7,524.7 
		898.7,369.1 898.7,367.9 897.5,367.9 	"/>
	<polygon points="796.5,418.7 794.1,418.7 794.1,458.4 792.5,457.5 792.5,457.5 790.7,456.5 790.1,456.1 789.5,456.5 787.8,457.5 
		787.8,457.5 786.2,458.4 786.2,418.7 783.8,418.7 783.8,459.8 757.2,475.1 758.4,477.2 789,459.5 789,459.5 790.1,458.9 
		791.3,459.5 791.3,459.5 824,478.4 825.2,476.3 796.5,459.8 	"/>
	<path d="M740.8,474.7c4,0,7.2,2.4,8.1,6.1h3.6c-0.9-5.6-5.6-9.4-11.7-9.4c-7.7,0-12.7,5.7-12.7,14.6c0,8.9,4.9,14.6,12.7,14.6
		c6.2,0,10.4-3.1,11.7-8.7h-3.6c-1,3.4-4,5.4-8.1,5.4c-5.6,0-9.1-4.4-9.1-11.3C731.7,479.2,735.2,474.7,740.8,474.7z"/>
	<polygon points="702.6,484.2 687.2,484.2 687.2,472 683.7,472 683.7,500.1 687.2,500.1 687.2,487.3 702.6,487.3 702.6,500.1 
		706.2,500.1 706.2,472 702.6,472 	"/>
	<path d="M719.2,496.2L719.2,496.2c2.5-0.5,4-2.3,4-4.7c0-3-2.7-5.1-6.2-5.1c-3.7,0-6.2,2.1-6.5,5.5h2.4c0.2-2.1,1.7-3.4,4-3.4
		c2.5,0,3.8,1.3,3.8,3.3c0,2-1.6,3.5-3.9,3.5h-2.4v2.1h2.5c2.8,0,4.6,1.4,4.6,3.8c0,2.1-1.9,3.5-4.5,3.5c-2.7,0-4.3-1.4-4.6-3.4
		h-2.4c0.2,3.3,2.8,5.6,6.9,5.6c3.9,0,7-2.4,7-5.8C724.1,498.2,722.1,496.4,719.2,496.2z"/>
	<path d="M840,471.5c-8,0-13,5.6-13,14.6c0,8.9,5,14.6,13,14.6c8,0,13-5.6,13-14.6C853,477.1,848,471.5,840,471.5z M840,497.4
		c-5.8,0-9.4-4.4-9.4-11.3c0-7,3.6-11.3,9.4-11.3c5.8,0,9.4,4.4,9.4,11.3C849.4,493,845.8,497.4,840,497.4z"/>
	<polygon points="876,484.2 860.5,484.2 860.5,472 857,472 857,500.1 860.5,500.1 860.5,487.3 876,487.3 876,500.1 879.5,500.1 
		879.5,472 876,472 	"/>
	<path d="M790.1,414.2c8,0,13-5.6,13-14.6c0-8.9-5-14.6-13-14.6c-8,0-13,5.6-13,14.6C777.2,408.6,782.2,414.2,790.1,414.2z
		 M790.1,388.3c5.8,0,9.4,4.4,9.4,11.3c0,6.9-3.6,11.3-9.4,11.3c-5.8,0-9.4-4.4-9.4-11.3C780.8,392.7,784.4,388.3,790.1,388.3z"/>
	<polygon points="928.3,504.8 924.5,504.8 919.4,512.7 919.3,512.7 914.2,504.8 910.4,504.8 917.5,515.3 910.3,525.9 914.1,525.9 
		919.2,517.8 919.3,517.8 924.4,525.9 928.2,525.9 921.1,515.2 	"/>
</g>
<path d="M642.4,440.1c-3.7,0-6.8,3.1-6.8,6.8c0,3.7,3.1,6.8,6.8,6.8s6.8-3.1,6.8-6.8C649.2,443.2,646.2,440.1,642.4,440.1z"/>
<g>
	<polygon class="st0" points="1045.3,107.6 1045.3,110.7 1051.5,106.2 1051.6,106.2 1051.6,126.8 1054.5,126.8 1054.5,103.1 
		1051.6,103.1 	"/>
	<path class="st0" d="M1069.9,102.7c-5.5,0-8.7,4.8-8.7,12.2c0,7.5,3.2,12.2,8.7,12.2c5.5,0,8.7-4.8,8.7-12.3
		C1078.6,107.5,1075.4,102.7,1069.9,102.7z M1069.9,124.6c-3.7,0-5.8-3.8-5.8-9.7c0-5.8,2.1-9.6,5.8-9.6c3.7,0,5.7,3.8,5.7,9.6
		C1075.6,120.8,1073.5,124.6,1069.9,124.6z"/>
</g>
<g>
	<path class="st0" d="M1047.1,198l6-6.2c4-4.1,5.2-6.1,5.2-8.7c0-3.6-3.3-6.5-7.6-6.5c-4.5,0-7.8,3.1-7.8,7.2v0h2.9v0
		c0-2.6,2.1-4.6,4.9-4.6c2.6,0,4.7,1.8,4.7,4.1c0,2-0.8,3.2-3.9,6.6l-8.3,8.8v2h15.6V198L1047.1,198L1047.1,198z"/>
	<path class="st0" d="M1071.3,176.6c-5.5,0-8.7,4.8-8.7,12.2c0,7.5,3.2,12.2,8.7,12.2c5.5,0,8.7-4.8,8.7-12.3
		C1080,181.4,1076.8,176.6,1071.3,176.6z M1071.3,198.5c-3.7,0-5.8-3.8-5.8-9.7c0-5.8,2.1-9.6,5.8-9.6c3.7,0,5.7,3.8,5.7,9.6
		C1077,194.7,1075,198.5,1071.3,198.5z"/>
</g>
<g>
	<path class="st0" d="M1053.2,264.1L1053.2,264.1c3-0.6,4.9-2.7,4.9-5.7c0-3.6-3.2-6.1-7.4-6.1c-4.4,0-7.4,2.6-7.8,6.6h2.8
		c0.3-2.5,2.1-4,4.8-4c3,0,4.6,1.6,4.6,3.9c0,2.4-1.9,4.2-4.6,4.2h-2.8v2.5h3c3.4,0,5.5,1.7,5.5,4.5c0,2.5-2.2,4.2-5.4,4.2
		c-3.2,0-5.2-1.7-5.5-4.1h-2.8c0.2,3.9,3.4,6.7,8.3,6.7c4.6,0,8.4-2.8,8.4-6.9C1059.1,266.6,1056.8,264.3,1053.2,264.1z"/>
	<path class="st0" d="M1071.1,252.3c-5.5,0-8.7,4.8-8.7,12.2c0,7.5,3.2,12.2,8.7,12.2c5.5,0,8.7-4.8,8.7-12.3
		C1079.8,257.1,1076.6,252.3,1071.1,252.3z M1071.1,274.2c-3.7,0-5.8-3.8-5.8-9.7c0-5.8,2.1-9.6,5.8-9.6c3.7,0,5.7,3.8,5.7,9.6
		C1076.8,270.5,1074.8,274.2,1071.1,274.2z"/>
</g>
<g>
	<path class="st0" d="M1056.5,328.7h-4.4c-5.6,8-8.4,12.3-10.4,16.1v2.7h11.9v4.9h2.9v-4.9h3.3v-2.6h-3.3V328.7z M1053.7,344.8h-9
		v-0.1c1.9-3.3,4.4-7.2,8.9-13.6h0V344.8z"/>
	<path class="st0" d="M1070.7,328.3c-5.5,0-8.7,4.8-8.7,12.2c0,7.5,3.2,12.2,8.7,12.2c5.5,0,8.7-4.8,8.7-12.3
		C1079.4,333.1,1076.2,328.3,1070.7,328.3z M1070.7,350.2c-3.7,0-5.8-3.8-5.8-9.7c0-5.8,2.1-9.6,5.8-9.6c3.7,0,5.7,3.8,5.7,9.6
		C1076.4,346.4,1074.4,350.2,1070.7,350.2z"/>
</g>
</svg>
